<?xml version="1.0" standalone="no"?><!DOCTYPE svg PUBLIC "-//W3C//DTD SVG 1.1//EN" "http://www.w3.org/Graphics/SVG/1.1/DTD/svg11.dtd">
<svg x="0.0000mm" y="0.0000mm" width="218.2810mm" height="218.2810mm" viewBox="0.0000 0.0000 218.2810 218.2810" version="1.1" xmlns="http://www.w3.org/2000/svg" shape-rendering="crispEdges">
<title>TBarCode - 11.17.1.16949</title>
<desc>BarCode licensed to MEM:TEC-IT Datenverarbeitung GmbH Internal License</desc>
<g fill="rgb(0%,0%,0%)">
</g>
<g fill="rgb(100%,100%,100%)">
<rect x="0.0000" y="0.0000" width="218.2810" height="218.2810" />
</g>
<g fill="rgb(0%,0%,0%)">
</g>
<g fill="rgb(0%,0%,0%)">
<rect x="0.0000" y="0.0000" width="6.6146" height="6.6146" />
<rect x="6.6146" y="0.0000" width="6.6146" height="6.6146" />
<rect x="13.2292" y="0.0000" width="6.6146" height="6.6146" />
<rect x="19.8437" y="0.0000" width="6.6146" height="6.6146" />
<rect x="26.4583" y="0.0000" width="6.6146" height="6.6146" />
<rect x="33.0729" y="0.0000" width="6.6146" height="6.6146" />
<rect x="39.6875" y="0.0000" width="6.6146" height="6.6146" />
<rect x="66.1458" y="0.0000" width="6.6146" height="6.6146" />
<rect x="79.3749" y="0.0000" width="6.6146" height="6.6146" />
<rect x="85.9895" y="0.0000" width="6.6146" height="6.6146" />
<rect x="99.2186" y="0.0000" width="6.6146" height="6.6146" />
<rect x="119.0624" y="0.0000" width="6.6146" height="6.6146" />
<rect x="125.6769" y="0.0000" width="6.6146" height="6.6146" />
<rect x="132.2915" y="0.0000" width="6.6146" height="6.6146" />
<rect x="138.9061" y="0.0000" width="6.6146" height="6.6146" />
<rect x="145.5207" y="0.0000" width="6.6146" height="6.6146" />
<rect x="152.1352" y="0.0000" width="6.6146" height="6.6146" />
<rect x="171.9790" y="0.0000" width="6.6146" height="6.6146" />
<rect x="178.5935" y="0.0000" width="6.6146" height="6.6146" />
<rect x="185.2081" y="0.0000" width="6.6146" height="6.6146" />
<rect x="191.8227" y="0.0000" width="6.6146" height="6.6146" />
<rect x="198.4373" y="0.0000" width="6.6146" height="6.6146" />
<rect x="205.0518" y="0.0000" width="6.6146" height="6.6146" />
<rect x="211.6664" y="0.0000" width="6.6146" height="6.6146" />
</g>
<g fill="rgb(0%,0%,0%)">
<rect x="0.0000" y="6.6146" width="6.6146" height="6.6146" />
<rect x="39.6875" y="6.6146" width="6.6146" height="6.6146" />
<rect x="52.9166" y="6.6146" width="6.6146" height="6.6146" />
<rect x="66.1458" y="6.6146" width="6.6146" height="6.6146" />
<rect x="105.8332" y="6.6146" width="6.6146" height="6.6146" />
<rect x="112.4478" y="6.6146" width="6.6146" height="6.6146" />
<rect x="119.0624" y="6.6146" width="6.6146" height="6.6146" />
<rect x="138.9061" y="6.6146" width="6.6146" height="6.6146" />
<rect x="145.5207" y="6.6146" width="6.6146" height="6.6146" />
<rect x="158.7498" y="6.6146" width="6.6146" height="6.6146" />
<rect x="171.9790" y="6.6146" width="6.6146" height="6.6146" />
<rect x="211.6664" y="6.6146" width="6.6146" height="6.6146" />
</g>
<g fill="rgb(0%,0%,0%)">
<rect x="0.0000" y="13.2292" width="6.6146" height="6.6146" />
<rect x="13.2292" y="13.2292" width="6.6146" height="6.6146" />
<rect x="19.8437" y="13.2292" width="6.6146" height="6.6146" />
<rect x="26.4583" y="13.2292" width="6.6146" height="6.6146" />
<rect x="39.6875" y="13.2292" width="6.6146" height="6.6146" />
<rect x="79.3749" y="13.2292" width="6.6146" height="6.6146" />
<rect x="85.9895" y="13.2292" width="6.6146" height="6.6146" />
<rect x="99.2186" y="13.2292" width="6.6146" height="6.6146" />
<rect x="125.6769" y="13.2292" width="6.6146" height="6.6146" />
<rect x="138.9061" y="13.2292" width="6.6146" height="6.6146" />
<rect x="152.1352" y="13.2292" width="6.6146" height="6.6146" />
<rect x="158.7498" y="13.2292" width="6.6146" height="6.6146" />
<rect x="171.9790" y="13.2292" width="6.6146" height="6.6146" />
<rect x="185.2081" y="13.2292" width="6.6146" height="6.6146" />
<rect x="191.8227" y="13.2292" width="6.6146" height="6.6146" />
<rect x="198.4373" y="13.2292" width="6.6146" height="6.6146" />
<rect x="211.6664" y="13.2292" width="6.6146" height="6.6146" />
</g>
<g fill="rgb(0%,0%,0%)">
<rect x="0.0000" y="19.8437" width="6.6146" height="6.6146" />
<rect x="13.2292" y="19.8437" width="6.6146" height="6.6146" />
<rect x="19.8437" y="19.8437" width="6.6146" height="6.6146" />
<rect x="26.4583" y="19.8437" width="6.6146" height="6.6146" />
<rect x="39.6875" y="19.8437" width="6.6146" height="6.6146" />
<rect x="52.9166" y="19.8437" width="6.6146" height="6.6146" />
<rect x="59.5312" y="19.8437" width="6.6146" height="6.6146" />
<rect x="66.1458" y="19.8437" width="6.6146" height="6.6146" />
<rect x="79.3749" y="19.8437" width="6.6146" height="6.6146" />
<rect x="92.6041" y="19.8437" width="6.6146" height="6.6146" />
<rect x="112.4478" y="19.8437" width="6.6146" height="6.6146" />
<rect x="119.0624" y="19.8437" width="6.6146" height="6.6146" />
<rect x="145.5207" y="19.8437" width="6.6146" height="6.6146" />
<rect x="171.9790" y="19.8437" width="6.6146" height="6.6146" />
<rect x="185.2081" y="19.8437" width="6.6146" height="6.6146" />
<rect x="191.8227" y="19.8437" width="6.6146" height="6.6146" />
<rect x="198.4373" y="19.8437" width="6.6146" height="6.6146" />
<rect x="211.6664" y="19.8437" width="6.6146" height="6.6146" />
</g>
<g fill="rgb(0%,0%,0%)">
<rect x="0.0000" y="26.4583" width="6.6146" height="6.6146" />
<rect x="13.2292" y="26.4583" width="6.6146" height="6.6146" />
<rect x="19.8437" y="26.4583" width="6.6146" height="6.6146" />
<rect x="26.4583" y="26.4583" width="6.6146" height="6.6146" />
<rect x="39.6875" y="26.4583" width="6.6146" height="6.6146" />
<rect x="59.5312" y="26.4583" width="6.6146" height="6.6146" />
<rect x="92.6041" y="26.4583" width="6.6146" height="6.6146" />
<rect x="99.2186" y="26.4583" width="6.6146" height="6.6146" />
<rect x="105.8332" y="26.4583" width="6.6146" height="6.6146" />
<rect x="125.6769" y="26.4583" width="6.6146" height="6.6146" />
<rect x="132.2915" y="26.4583" width="6.6146" height="6.6146" />
<rect x="138.9061" y="26.4583" width="6.6146" height="6.6146" />
<rect x="152.1352" y="26.4583" width="6.6146" height="6.6146" />
<rect x="171.9790" y="26.4583" width="6.6146" height="6.6146" />
<rect x="185.2081" y="26.4583" width="6.6146" height="6.6146" />
<rect x="191.8227" y="26.4583" width="6.6146" height="6.6146" />
<rect x="198.4373" y="26.4583" width="6.6146" height="6.6146" />
<rect x="211.6664" y="26.4583" width="6.6146" height="6.6146" />
</g>
<g fill="rgb(0%,0%,0%)">
<rect x="0.0000" y="33.0729" width="6.6146" height="6.6146" />
<rect x="39.6875" y="33.0729" width="6.6146" height="6.6146" />
<rect x="52.9166" y="33.0729" width="6.6146" height="6.6146" />
<rect x="59.5312" y="33.0729" width="6.6146" height="6.6146" />
<rect x="72.7603" y="33.0729" width="6.6146" height="6.6146" />
<rect x="79.3749" y="33.0729" width="6.6146" height="6.6146" />
<rect x="112.4478" y="33.0729" width="6.6146" height="6.6146" />
<rect x="119.0624" y="33.0729" width="6.6146" height="6.6146" />
<rect x="171.9790" y="33.0729" width="6.6146" height="6.6146" />
<rect x="211.6664" y="33.0729" width="6.6146" height="6.6146" />
</g>
<g fill="rgb(0%,0%,0%)">
<rect x="0.0000" y="39.6875" width="6.6146" height="6.6146" />
<rect x="6.6146" y="39.6875" width="6.6146" height="6.6146" />
<rect x="13.2292" y="39.6875" width="6.6146" height="6.6146" />
<rect x="19.8437" y="39.6875" width="6.6146" height="6.6146" />
<rect x="26.4583" y="39.6875" width="6.6146" height="6.6146" />
<rect x="33.0729" y="39.6875" width="6.6146" height="6.6146" />
<rect x="39.6875" y="39.6875" width="6.6146" height="6.6146" />
<rect x="52.9166" y="39.6875" width="6.6146" height="6.6146" />
<rect x="66.1458" y="39.6875" width="6.6146" height="6.6146" />
<rect x="79.3749" y="39.6875" width="6.6146" height="6.6146" />
<rect x="92.6041" y="39.6875" width="6.6146" height="6.6146" />
<rect x="105.8332" y="39.6875" width="6.6146" height="6.6146" />
<rect x="119.0624" y="39.6875" width="6.6146" height="6.6146" />
<rect x="132.2915" y="39.6875" width="6.6146" height="6.6146" />
<rect x="145.5207" y="39.6875" width="6.6146" height="6.6146" />
<rect x="158.7498" y="39.6875" width="6.6146" height="6.6146" />
<rect x="171.9790" y="39.6875" width="6.6146" height="6.6146" />
<rect x="178.5935" y="39.6875" width="6.6146" height="6.6146" />
<rect x="185.2081" y="39.6875" width="6.6146" height="6.6146" />
<rect x="191.8227" y="39.6875" width="6.6146" height="6.6146" />
<rect x="198.4373" y="39.6875" width="6.6146" height="6.6146" />
<rect x="205.0518" y="39.6875" width="6.6146" height="6.6146" />
<rect x="211.6664" y="39.6875" width="6.6146" height="6.6146" />
</g>
<g fill="rgb(0%,0%,0%)">
<rect x="59.5312" y="46.3020" width="6.6146" height="6.6146" />
<rect x="66.1458" y="46.3020" width="6.6146" height="6.6146" />
<rect x="72.7603" y="46.3020" width="6.6146" height="6.6146" />
<rect x="85.9895" y="46.3020" width="6.6146" height="6.6146" />
<rect x="99.2186" y="46.3020" width="6.6146" height="6.6146" />
<rect x="138.9061" y="46.3020" width="6.6146" height="6.6146" />
<rect x="145.5207" y="46.3020" width="6.6146" height="6.6146" />
<rect x="152.1352" y="46.3020" width="6.6146" height="6.6146" />
</g>
<g fill="rgb(0%,0%,0%)">
<rect x="0.0000" y="52.9166" width="6.6146" height="6.6146" />
<rect x="6.6146" y="52.9166" width="6.6146" height="6.6146" />
<rect x="13.2292" y="52.9166" width="6.6146" height="6.6146" />
<rect x="19.8437" y="52.9166" width="6.6146" height="6.6146" />
<rect x="26.4583" y="52.9166" width="6.6146" height="6.6146" />
<rect x="39.6875" y="52.9166" width="6.6146" height="6.6146" />
<rect x="46.3020" y="52.9166" width="6.6146" height="6.6146" />
<rect x="52.9166" y="52.9166" width="6.6146" height="6.6146" />
<rect x="59.5312" y="52.9166" width="6.6146" height="6.6146" />
<rect x="72.7603" y="52.9166" width="6.6146" height="6.6146" />
<rect x="92.6041" y="52.9166" width="6.6146" height="6.6146" />
<rect x="112.4478" y="52.9166" width="6.6146" height="6.6146" />
<rect x="119.0624" y="52.9166" width="6.6146" height="6.6146" />
<rect x="132.2915" y="52.9166" width="6.6146" height="6.6146" />
<rect x="145.5207" y="52.9166" width="6.6146" height="6.6146" />
<rect x="152.1352" y="52.9166" width="6.6146" height="6.6146" />
<rect x="158.7498" y="52.9166" width="6.6146" height="6.6146" />
<rect x="165.3644" y="52.9166" width="6.6146" height="6.6146" />
<rect x="178.5935" y="52.9166" width="6.6146" height="6.6146" />
<rect x="191.8227" y="52.9166" width="6.6146" height="6.6146" />
<rect x="205.0518" y="52.9166" width="6.6146" height="6.6146" />
</g>
<g fill="rgb(0%,0%,0%)">
<rect x="13.2292" y="59.5312" width="6.6146" height="6.6146" />
<rect x="33.0729" y="59.5312" width="6.6146" height="6.6146" />
<rect x="46.3020" y="59.5312" width="6.6146" height="6.6146" />
<rect x="52.9166" y="59.5312" width="6.6146" height="6.6146" />
<rect x="66.1458" y="59.5312" width="6.6146" height="6.6146" />
<rect x="79.3749" y="59.5312" width="6.6146" height="6.6146" />
<rect x="92.6041" y="59.5312" width="6.6146" height="6.6146" />
<rect x="99.2186" y="59.5312" width="6.6146" height="6.6146" />
<rect x="105.8332" y="59.5312" width="6.6146" height="6.6146" />
<rect x="125.6769" y="59.5312" width="6.6146" height="6.6146" />
<rect x="138.9061" y="59.5312" width="6.6146" height="6.6146" />
<rect x="145.5207" y="59.5312" width="6.6146" height="6.6146" />
<rect x="152.1352" y="59.5312" width="6.6146" height="6.6146" />
<rect x="171.9790" y="59.5312" width="6.6146" height="6.6146" />
<rect x="198.4373" y="59.5312" width="6.6146" height="6.6146" />
<rect x="205.0518" y="59.5312" width="6.6146" height="6.6146" />
<rect x="211.6664" y="59.5312" width="6.6146" height="6.6146" />
</g>
<g fill="rgb(0%,0%,0%)">
<rect x="33.0729" y="66.1458" width="6.6146" height="6.6146" />
<rect x="39.6875" y="66.1458" width="6.6146" height="6.6146" />
<rect x="66.1458" y="66.1458" width="6.6146" height="6.6146" />
<rect x="132.2915" y="66.1458" width="6.6146" height="6.6146" />
<rect x="138.9061" y="66.1458" width="6.6146" height="6.6146" />
<rect x="145.5207" y="66.1458" width="6.6146" height="6.6146" />
<rect x="158.7498" y="66.1458" width="6.6146" height="6.6146" />
<rect x="165.3644" y="66.1458" width="6.6146" height="6.6146" />
<rect x="171.9790" y="66.1458" width="6.6146" height="6.6146" />
<rect x="178.5935" y="66.1458" width="6.6146" height="6.6146" />
<rect x="191.8227" y="66.1458" width="6.6146" height="6.6146" />
<rect x="205.0518" y="66.1458" width="6.6146" height="6.6146" />
</g>
<g fill="rgb(0%,0%,0%)">
<rect x="0.0000" y="72.7603" width="6.6146" height="6.6146" />
<rect x="6.6146" y="72.7603" width="6.6146" height="6.6146" />
<rect x="13.2292" y="72.7603" width="6.6146" height="6.6146" />
<rect x="19.8437" y="72.7603" width="6.6146" height="6.6146" />
<rect x="46.3020" y="72.7603" width="6.6146" height="6.6146" />
<rect x="52.9166" y="72.7603" width="6.6146" height="6.6146" />
<rect x="79.3749" y="72.7603" width="6.6146" height="6.6146" />
<rect x="85.9895" y="72.7603" width="6.6146" height="6.6146" />
<rect x="92.6041" y="72.7603" width="6.6146" height="6.6146" />
<rect x="99.2186" y="72.7603" width="6.6146" height="6.6146" />
<rect x="105.8332" y="72.7603" width="6.6146" height="6.6146" />
<rect x="119.0624" y="72.7603" width="6.6146" height="6.6146" />
<rect x="138.9061" y="72.7603" width="6.6146" height="6.6146" />
<rect x="145.5207" y="72.7603" width="6.6146" height="6.6146" />
<rect x="158.7498" y="72.7603" width="6.6146" height="6.6146" />
<rect x="165.3644" y="72.7603" width="6.6146" height="6.6146" />
<rect x="171.9790" y="72.7603" width="6.6146" height="6.6146" />
<rect x="185.2081" y="72.7603" width="6.6146" height="6.6146" />
<rect x="198.4373" y="72.7603" width="6.6146" height="6.6146" />
</g>
<g fill="rgb(0%,0%,0%)">
<rect x="0.0000" y="79.3749" width="6.6146" height="6.6146" />
<rect x="6.6146" y="79.3749" width="6.6146" height="6.6146" />
<rect x="39.6875" y="79.3749" width="6.6146" height="6.6146" />
<rect x="46.3020" y="79.3749" width="6.6146" height="6.6146" />
<rect x="52.9166" y="79.3749" width="6.6146" height="6.6146" />
<rect x="59.5312" y="79.3749" width="6.6146" height="6.6146" />
<rect x="66.1458" y="79.3749" width="6.6146" height="6.6146" />
<rect x="79.3749" y="79.3749" width="6.6146" height="6.6146" />
<rect x="99.2186" y="79.3749" width="6.6146" height="6.6146" />
<rect x="112.4478" y="79.3749" width="6.6146" height="6.6146" />
<rect x="119.0624" y="79.3749" width="6.6146" height="6.6146" />
<rect x="145.5207" y="79.3749" width="6.6146" height="6.6146" />
<rect x="152.1352" y="79.3749" width="6.6146" height="6.6146" />
<rect x="158.7498" y="79.3749" width="6.6146" height="6.6146" />
<rect x="165.3644" y="79.3749" width="6.6146" height="6.6146" />
<rect x="178.5935" y="79.3749" width="6.6146" height="6.6146" />
<rect x="185.2081" y="79.3749" width="6.6146" height="6.6146" />
<rect x="191.8227" y="79.3749" width="6.6146" height="6.6146" />
</g>
<g fill="rgb(0%,0%,0%)">
<rect x="0.0000" y="85.9895" width="6.6146" height="6.6146" />
<rect x="13.2292" y="85.9895" width="6.6146" height="6.6146" />
<rect x="26.4583" y="85.9895" width="6.6146" height="6.6146" />
<rect x="85.9895" y="85.9895" width="6.6146" height="6.6146" />
<rect x="92.6041" y="85.9895" width="6.6146" height="6.6146" />
<rect x="105.8332" y="85.9895" width="6.6146" height="6.6146" />
<rect x="125.6769" y="85.9895" width="6.6146" height="6.6146" />
<rect x="132.2915" y="85.9895" width="6.6146" height="6.6146" />
<rect x="138.9061" y="85.9895" width="6.6146" height="6.6146" />
<rect x="145.5207" y="85.9895" width="6.6146" height="6.6146" />
<rect x="152.1352" y="85.9895" width="6.6146" height="6.6146" />
<rect x="165.3644" y="85.9895" width="6.6146" height="6.6146" />
<rect x="171.9790" y="85.9895" width="6.6146" height="6.6146" />
<rect x="205.0518" y="85.9895" width="6.6146" height="6.6146" />
<rect x="211.6664" y="85.9895" width="6.6146" height="6.6146" />
</g>
<g fill="rgb(0%,0%,0%)">
<rect x="6.6146" y="92.6041" width="6.6146" height="6.6146" />
<rect x="13.2292" y="92.6041" width="6.6146" height="6.6146" />
<rect x="33.0729" y="92.6041" width="6.6146" height="6.6146" />
<rect x="39.6875" y="92.6041" width="6.6146" height="6.6146" />
<rect x="52.9166" y="92.6041" width="6.6146" height="6.6146" />
<rect x="59.5312" y="92.6041" width="6.6146" height="6.6146" />
<rect x="66.1458" y="92.6041" width="6.6146" height="6.6146" />
<rect x="72.7603" y="92.6041" width="6.6146" height="6.6146" />
<rect x="79.3749" y="92.6041" width="6.6146" height="6.6146" />
<rect x="112.4478" y="92.6041" width="6.6146" height="6.6146" />
<rect x="138.9061" y="92.6041" width="6.6146" height="6.6146" />
<rect x="145.5207" y="92.6041" width="6.6146" height="6.6146" />
<rect x="165.3644" y="92.6041" width="6.6146" height="6.6146" />
<rect x="185.2081" y="92.6041" width="6.6146" height="6.6146" />
<rect x="205.0518" y="92.6041" width="6.6146" height="6.6146" />
</g>
<g fill="rgb(0%,0%,0%)">
<rect x="26.4583" y="99.2186" width="6.6146" height="6.6146" />
<rect x="33.0729" y="99.2186" width="6.6146" height="6.6146" />
<rect x="46.3020" y="99.2186" width="6.6146" height="6.6146" />
<rect x="59.5312" y="99.2186" width="6.6146" height="6.6146" />
<rect x="66.1458" y="99.2186" width="6.6146" height="6.6146" />
<rect x="72.7603" y="99.2186" width="6.6146" height="6.6146" />
<rect x="85.9895" y="99.2186" width="6.6146" height="6.6146" />
<rect x="92.6041" y="99.2186" width="6.6146" height="6.6146" />
<rect x="99.2186" y="99.2186" width="6.6146" height="6.6146" />
<rect x="138.9061" y="99.2186" width="6.6146" height="6.6146" />
<rect x="152.1352" y="99.2186" width="6.6146" height="6.6146" />
<rect x="158.7498" y="99.2186" width="6.6146" height="6.6146" />
<rect x="165.3644" y="99.2186" width="6.6146" height="6.6146" />
<rect x="178.5935" y="99.2186" width="6.6146" height="6.6146" />
<rect x="198.4373" y="99.2186" width="6.6146" height="6.6146" />
</g>
<g fill="rgb(0%,0%,0%)">
<rect x="39.6875" y="105.8332" width="6.6146" height="6.6146" />
<rect x="52.9166" y="105.8332" width="6.6146" height="6.6146" />
<rect x="72.7603" y="105.8332" width="6.6146" height="6.6146" />
<rect x="99.2186" y="105.8332" width="6.6146" height="6.6146" />
<rect x="105.8332" y="105.8332" width="6.6146" height="6.6146" />
<rect x="112.4478" y="105.8332" width="6.6146" height="6.6146" />
<rect x="119.0624" y="105.8332" width="6.6146" height="6.6146" />
<rect x="125.6769" y="105.8332" width="6.6146" height="6.6146" />
<rect x="132.2915" y="105.8332" width="6.6146" height="6.6146" />
<rect x="145.5207" y="105.8332" width="6.6146" height="6.6146" />
<rect x="165.3644" y="105.8332" width="6.6146" height="6.6146" />
<rect x="178.5935" y="105.8332" width="6.6146" height="6.6146" />
<rect x="185.2081" y="105.8332" width="6.6146" height="6.6146" />
<rect x="205.0518" y="105.8332" width="6.6146" height="6.6146" />
</g>
<g fill="rgb(0%,0%,0%)">
<rect x="13.2292" y="112.4478" width="6.6146" height="6.6146" />
<rect x="19.8437" y="112.4478" width="6.6146" height="6.6146" />
<rect x="26.4583" y="112.4478" width="6.6146" height="6.6146" />
<rect x="33.0729" y="112.4478" width="6.6146" height="6.6146" />
<rect x="46.3020" y="112.4478" width="6.6146" height="6.6146" />
<rect x="59.5312" y="112.4478" width="6.6146" height="6.6146" />
<rect x="79.3749" y="112.4478" width="6.6146" height="6.6146" />
<rect x="92.6041" y="112.4478" width="6.6146" height="6.6146" />
<rect x="99.2186" y="112.4478" width="6.6146" height="6.6146" />
<rect x="125.6769" y="112.4478" width="6.6146" height="6.6146" />
<rect x="138.9061" y="112.4478" width="6.6146" height="6.6146" />
<rect x="145.5207" y="112.4478" width="6.6146" height="6.6146" />
<rect x="152.1352" y="112.4478" width="6.6146" height="6.6146" />
<rect x="171.9790" y="112.4478" width="6.6146" height="6.6146" />
<rect x="191.8227" y="112.4478" width="6.6146" height="6.6146" />
<rect x="205.0518" y="112.4478" width="6.6146" height="6.6146" />
<rect x="211.6664" y="112.4478" width="6.6146" height="6.6146" />
</g>
<g fill="rgb(0%,0%,0%)">
<rect x="0.0000" y="119.0624" width="6.6146" height="6.6146" />
<rect x="6.6146" y="119.0624" width="6.6146" height="6.6146" />
<rect x="26.4583" y="119.0624" width="6.6146" height="6.6146" />
<rect x="33.0729" y="119.0624" width="6.6146" height="6.6146" />
<rect x="39.6875" y="119.0624" width="6.6146" height="6.6146" />
<rect x="52.9166" y="119.0624" width="6.6146" height="6.6146" />
<rect x="66.1458" y="119.0624" width="6.6146" height="6.6146" />
<rect x="92.6041" y="119.0624" width="6.6146" height="6.6146" />
<rect x="105.8332" y="119.0624" width="6.6146" height="6.6146" />
<rect x="112.4478" y="119.0624" width="6.6146" height="6.6146" />
<rect x="132.2915" y="119.0624" width="6.6146" height="6.6146" />
<rect x="165.3644" y="119.0624" width="6.6146" height="6.6146" />
<rect x="191.8227" y="119.0624" width="6.6146" height="6.6146" />
<rect x="205.0518" y="119.0624" width="6.6146" height="6.6146" />
</g>
<g fill="rgb(0%,0%,0%)">
<rect x="13.2292" y="125.6769" width="6.6146" height="6.6146" />
<rect x="79.3749" y="125.6769" width="6.6146" height="6.6146" />
<rect x="85.9895" y="125.6769" width="6.6146" height="6.6146" />
<rect x="99.2186" y="125.6769" width="6.6146" height="6.6146" />
<rect x="119.0624" y="125.6769" width="6.6146" height="6.6146" />
<rect x="138.9061" y="125.6769" width="6.6146" height="6.6146" />
<rect x="145.5207" y="125.6769" width="6.6146" height="6.6146" />
<rect x="152.1352" y="125.6769" width="6.6146" height="6.6146" />
<rect x="178.5935" y="125.6769" width="6.6146" height="6.6146" />
<rect x="185.2081" y="125.6769" width="6.6146" height="6.6146" />
<rect x="198.4373" y="125.6769" width="6.6146" height="6.6146" />
</g>
<g fill="rgb(0%,0%,0%)">
<rect x="0.0000" y="132.2915" width="6.6146" height="6.6146" />
<rect x="33.0729" y="132.2915" width="6.6146" height="6.6146" />
<rect x="39.6875" y="132.2915" width="6.6146" height="6.6146" />
<rect x="46.3020" y="132.2915" width="6.6146" height="6.6146" />
<rect x="52.9166" y="132.2915" width="6.6146" height="6.6146" />
<rect x="59.5312" y="132.2915" width="6.6146" height="6.6146" />
<rect x="66.1458" y="132.2915" width="6.6146" height="6.6146" />
<rect x="79.3749" y="132.2915" width="6.6146" height="6.6146" />
<rect x="92.6041" y="132.2915" width="6.6146" height="6.6146" />
<rect x="112.4478" y="132.2915" width="6.6146" height="6.6146" />
<rect x="152.1352" y="132.2915" width="6.6146" height="6.6146" />
<rect x="158.7498" y="132.2915" width="6.6146" height="6.6146" />
<rect x="178.5935" y="132.2915" width="6.6146" height="6.6146" />
<rect x="185.2081" y="132.2915" width="6.6146" height="6.6146" />
<rect x="205.0518" y="132.2915" width="6.6146" height="6.6146" />
</g>
<g fill="rgb(0%,0%,0%)">
<rect x="0.0000" y="138.9061" width="6.6146" height="6.6146" />
<rect x="6.6146" y="138.9061" width="6.6146" height="6.6146" />
<rect x="13.2292" y="138.9061" width="6.6146" height="6.6146" />
<rect x="19.8437" y="138.9061" width="6.6146" height="6.6146" />
<rect x="33.0729" y="138.9061" width="6.6146" height="6.6146" />
<rect x="52.9166" y="138.9061" width="6.6146" height="6.6146" />
<rect x="66.1458" y="138.9061" width="6.6146" height="6.6146" />
<rect x="85.9895" y="138.9061" width="6.6146" height="6.6146" />
<rect x="119.0624" y="138.9061" width="6.6146" height="6.6146" />
<rect x="125.6769" y="138.9061" width="6.6146" height="6.6146" />
<rect x="132.2915" y="138.9061" width="6.6146" height="6.6146" />
<rect x="152.1352" y="138.9061" width="6.6146" height="6.6146" />
<rect x="158.7498" y="138.9061" width="6.6146" height="6.6146" />
<rect x="171.9790" y="138.9061" width="6.6146" height="6.6146" />
<rect x="191.8227" y="138.9061" width="6.6146" height="6.6146" />
<rect x="205.0518" y="138.9061" width="6.6146" height="6.6146" />
<rect x="211.6664" y="138.9061" width="6.6146" height="6.6146" />
</g>
<g fill="rgb(0%,0%,0%)">
<rect x="0.0000" y="145.5207" width="6.6146" height="6.6146" />
<rect x="19.8437" y="145.5207" width="6.6146" height="6.6146" />
<rect x="33.0729" y="145.5207" width="6.6146" height="6.6146" />
<rect x="39.6875" y="145.5207" width="6.6146" height="6.6146" />
<rect x="46.3020" y="145.5207" width="6.6146" height="6.6146" />
<rect x="59.5312" y="145.5207" width="6.6146" height="6.6146" />
<rect x="72.7603" y="145.5207" width="6.6146" height="6.6146" />
<rect x="79.3749" y="145.5207" width="6.6146" height="6.6146" />
<rect x="99.2186" y="145.5207" width="6.6146" height="6.6146" />
<rect x="112.4478" y="145.5207" width="6.6146" height="6.6146" />
<rect x="145.5207" y="145.5207" width="6.6146" height="6.6146" />
<rect x="165.3644" y="145.5207" width="6.6146" height="6.6146" />
<rect x="171.9790" y="145.5207" width="6.6146" height="6.6146" />
<rect x="178.5935" y="145.5207" width="6.6146" height="6.6146" />
<rect x="185.2081" y="145.5207" width="6.6146" height="6.6146" />
<rect x="191.8227" y="145.5207" width="6.6146" height="6.6146" />
<rect x="205.0518" y="145.5207" width="6.6146" height="6.6146" />
</g>
<g fill="rgb(0%,0%,0%)">
<rect x="0.0000" y="152.1352" width="6.6146" height="6.6146" />
<rect x="13.2292" y="152.1352" width="6.6146" height="6.6146" />
<rect x="19.8437" y="152.1352" width="6.6146" height="6.6146" />
<rect x="33.0729" y="152.1352" width="6.6146" height="6.6146" />
<rect x="59.5312" y="152.1352" width="6.6146" height="6.6146" />
<rect x="72.7603" y="152.1352" width="6.6146" height="6.6146" />
<rect x="99.2186" y="152.1352" width="6.6146" height="6.6146" />
<rect x="119.0624" y="152.1352" width="6.6146" height="6.6146" />
<rect x="138.9061" y="152.1352" width="6.6146" height="6.6146" />
<rect x="145.5207" y="152.1352" width="6.6146" height="6.6146" />
<rect x="171.9790" y="152.1352" width="6.6146" height="6.6146" />
<rect x="185.2081" y="152.1352" width="6.6146" height="6.6146" />
<rect x="191.8227" y="152.1352" width="6.6146" height="6.6146" />
<rect x="198.4373" y="152.1352" width="6.6146" height="6.6146" />
</g>
<g fill="rgb(0%,0%,0%)">
<rect x="0.0000" y="158.7498" width="6.6146" height="6.6146" />
<rect x="19.8437" y="158.7498" width="6.6146" height="6.6146" />
<rect x="33.0729" y="158.7498" width="6.6146" height="6.6146" />
<rect x="39.6875" y="158.7498" width="6.6146" height="6.6146" />
<rect x="52.9166" y="158.7498" width="6.6146" height="6.6146" />
<rect x="66.1458" y="158.7498" width="6.6146" height="6.6146" />
<rect x="72.7603" y="158.7498" width="6.6146" height="6.6146" />
<rect x="99.2186" y="158.7498" width="6.6146" height="6.6146" />
<rect x="105.8332" y="158.7498" width="6.6146" height="6.6146" />
<rect x="119.0624" y="158.7498" width="6.6146" height="6.6146" />
<rect x="132.2915" y="158.7498" width="6.6146" height="6.6146" />
<rect x="152.1352" y="158.7498" width="6.6146" height="6.6146" />
<rect x="158.7498" y="158.7498" width="6.6146" height="6.6146" />
<rect x="165.3644" y="158.7498" width="6.6146" height="6.6146" />
<rect x="171.9790" y="158.7498" width="6.6146" height="6.6146" />
<rect x="178.5935" y="158.7498" width="6.6146" height="6.6146" />
<rect x="185.2081" y="158.7498" width="6.6146" height="6.6146" />
<rect x="191.8227" y="158.7498" width="6.6146" height="6.6146" />
<rect x="211.6664" y="158.7498" width="6.6146" height="6.6146" />
</g>
<g fill="rgb(0%,0%,0%)">
<rect x="52.9166" y="165.3644" width="6.6146" height="6.6146" />
<rect x="59.5312" y="165.3644" width="6.6146" height="6.6146" />
<rect x="79.3749" y="165.3644" width="6.6146" height="6.6146" />
<rect x="85.9895" y="165.3644" width="6.6146" height="6.6146" />
<rect x="99.2186" y="165.3644" width="6.6146" height="6.6146" />
<rect x="125.6769" y="165.3644" width="6.6146" height="6.6146" />
<rect x="138.9061" y="165.3644" width="6.6146" height="6.6146" />
<rect x="145.5207" y="165.3644" width="6.6146" height="6.6146" />
<rect x="158.7498" y="165.3644" width="6.6146" height="6.6146" />
<rect x="185.2081" y="165.3644" width="6.6146" height="6.6146" />
<rect x="191.8227" y="165.3644" width="6.6146" height="6.6146" />
<rect x="198.4373" y="165.3644" width="6.6146" height="6.6146" />
<rect x="211.6664" y="165.3644" width="6.6146" height="6.6146" />
</g>
<g fill="rgb(0%,0%,0%)">
<rect x="0.0000" y="171.9790" width="6.6146" height="6.6146" />
<rect x="6.6146" y="171.9790" width="6.6146" height="6.6146" />
<rect x="13.2292" y="171.9790" width="6.6146" height="6.6146" />
<rect x="19.8437" y="171.9790" width="6.6146" height="6.6146" />
<rect x="26.4583" y="171.9790" width="6.6146" height="6.6146" />
<rect x="33.0729" y="171.9790" width="6.6146" height="6.6146" />
<rect x="39.6875" y="171.9790" width="6.6146" height="6.6146" />
<rect x="52.9166" y="171.9790" width="6.6146" height="6.6146" />
<rect x="59.5312" y="171.9790" width="6.6146" height="6.6146" />
<rect x="66.1458" y="171.9790" width="6.6146" height="6.6146" />
<rect x="85.9895" y="171.9790" width="6.6146" height="6.6146" />
<rect x="92.6041" y="171.9790" width="6.6146" height="6.6146" />
<rect x="99.2186" y="171.9790" width="6.6146" height="6.6146" />
<rect x="105.8332" y="171.9790" width="6.6146" height="6.6146" />
<rect x="119.0624" y="171.9790" width="6.6146" height="6.6146" />
<rect x="138.9061" y="171.9790" width="6.6146" height="6.6146" />
<rect x="152.1352" y="171.9790" width="6.6146" height="6.6146" />
<rect x="158.7498" y="171.9790" width="6.6146" height="6.6146" />
<rect x="171.9790" y="171.9790" width="6.6146" height="6.6146" />
<rect x="185.2081" y="171.9790" width="6.6146" height="6.6146" />
<rect x="191.8227" y="171.9790" width="6.6146" height="6.6146" />
<rect x="205.0518" y="171.9790" width="6.6146" height="6.6146" />
</g>
<g fill="rgb(0%,0%,0%)">
<rect x="0.0000" y="178.5935" width="6.6146" height="6.6146" />
<rect x="39.6875" y="178.5935" width="6.6146" height="6.6146" />
<rect x="59.5312" y="178.5935" width="6.6146" height="6.6146" />
<rect x="79.3749" y="178.5935" width="6.6146" height="6.6146" />
<rect x="85.9895" y="178.5935" width="6.6146" height="6.6146" />
<rect x="99.2186" y="178.5935" width="6.6146" height="6.6146" />
<rect x="119.0624" y="178.5935" width="6.6146" height="6.6146" />
<rect x="125.6769" y="178.5935" width="6.6146" height="6.6146" />
<rect x="132.2915" y="178.5935" width="6.6146" height="6.6146" />
<rect x="138.9061" y="178.5935" width="6.6146" height="6.6146" />
<rect x="152.1352" y="178.5935" width="6.6146" height="6.6146" />
<rect x="158.7498" y="178.5935" width="6.6146" height="6.6146" />
<rect x="185.2081" y="178.5935" width="6.6146" height="6.6146" />
<rect x="191.8227" y="178.5935" width="6.6146" height="6.6146" />
<rect x="198.4373" y="178.5935" width="6.6146" height="6.6146" />
<rect x="205.0518" y="178.5935" width="6.6146" height="6.6146" />
</g>
<g fill="rgb(0%,0%,0%)">
<rect x="0.0000" y="185.2081" width="6.6146" height="6.6146" />
<rect x="13.2292" y="185.2081" width="6.6146" height="6.6146" />
<rect x="19.8437" y="185.2081" width="6.6146" height="6.6146" />
<rect x="26.4583" y="185.2081" width="6.6146" height="6.6146" />
<rect x="39.6875" y="185.2081" width="6.6146" height="6.6146" />
<rect x="52.9166" y="185.2081" width="6.6146" height="6.6146" />
<rect x="79.3749" y="185.2081" width="6.6146" height="6.6146" />
<rect x="92.6041" y="185.2081" width="6.6146" height="6.6146" />
<rect x="99.2186" y="185.2081" width="6.6146" height="6.6146" />
<rect x="105.8332" y="185.2081" width="6.6146" height="6.6146" />
<rect x="119.0624" y="185.2081" width="6.6146" height="6.6146" />
<rect x="145.5207" y="185.2081" width="6.6146" height="6.6146" />
<rect x="158.7498" y="185.2081" width="6.6146" height="6.6146" />
<rect x="165.3644" y="185.2081" width="6.6146" height="6.6146" />
<rect x="171.9790" y="185.2081" width="6.6146" height="6.6146" />
<rect x="178.5935" y="185.2081" width="6.6146" height="6.6146" />
<rect x="185.2081" y="185.2081" width="6.6146" height="6.6146" />
<rect x="191.8227" y="185.2081" width="6.6146" height="6.6146" />
</g>
<g fill="rgb(0%,0%,0%)">
<rect x="0.0000" y="191.8227" width="6.6146" height="6.6146" />
<rect x="13.2292" y="191.8227" width="6.6146" height="6.6146" />
<rect x="19.8437" y="191.8227" width="6.6146" height="6.6146" />
<rect x="26.4583" y="191.8227" width="6.6146" height="6.6146" />
<rect x="39.6875" y="191.8227" width="6.6146" height="6.6146" />
<rect x="52.9166" y="191.8227" width="6.6146" height="6.6146" />
<rect x="59.5312" y="191.8227" width="6.6146" height="6.6146" />
<rect x="99.2186" y="191.8227" width="6.6146" height="6.6146" />
<rect x="105.8332" y="191.8227" width="6.6146" height="6.6146" />
<rect x="112.4478" y="191.8227" width="6.6146" height="6.6146" />
<rect x="125.6769" y="191.8227" width="6.6146" height="6.6146" />
<rect x="132.2915" y="191.8227" width="6.6146" height="6.6146" />
<rect x="138.9061" y="191.8227" width="6.6146" height="6.6146" />
<rect x="152.1352" y="191.8227" width="6.6146" height="6.6146" />
<rect x="165.3644" y="191.8227" width="6.6146" height="6.6146" />
<rect x="178.5935" y="191.8227" width="6.6146" height="6.6146" />
<rect x="185.2081" y="191.8227" width="6.6146" height="6.6146" />
<rect x="191.8227" y="191.8227" width="6.6146" height="6.6146" />
<rect x="198.4373" y="191.8227" width="6.6146" height="6.6146" />
<rect x="205.0518" y="191.8227" width="6.6146" height="6.6146" />
<rect x="211.6664" y="191.8227" width="6.6146" height="6.6146" />
</g>
<g fill="rgb(0%,0%,0%)">
<rect x="0.0000" y="198.4373" width="6.6146" height="6.6146" />
<rect x="13.2292" y="198.4373" width="6.6146" height="6.6146" />
<rect x="19.8437" y="198.4373" width="6.6146" height="6.6146" />
<rect x="26.4583" y="198.4373" width="6.6146" height="6.6146" />
<rect x="39.6875" y="198.4373" width="6.6146" height="6.6146" />
<rect x="52.9166" y="198.4373" width="6.6146" height="6.6146" />
<rect x="66.1458" y="198.4373" width="6.6146" height="6.6146" />
<rect x="72.7603" y="198.4373" width="6.6146" height="6.6146" />
<rect x="79.3749" y="198.4373" width="6.6146" height="6.6146" />
<rect x="99.2186" y="198.4373" width="6.6146" height="6.6146" />
<rect x="105.8332" y="198.4373" width="6.6146" height="6.6146" />
<rect x="112.4478" y="198.4373" width="6.6146" height="6.6146" />
<rect x="119.0624" y="198.4373" width="6.6146" height="6.6146" />
<rect x="132.2915" y="198.4373" width="6.6146" height="6.6146" />
<rect x="145.5207" y="198.4373" width="6.6146" height="6.6146" />
<rect x="152.1352" y="198.4373" width="6.6146" height="6.6146" />
<rect x="171.9790" y="198.4373" width="6.6146" height="6.6146" />
<rect x="178.5935" y="198.4373" width="6.6146" height="6.6146" />
<rect x="191.8227" y="198.4373" width="6.6146" height="6.6146" />
</g>
<g fill="rgb(0%,0%,0%)">
<rect x="0.0000" y="205.0518" width="6.6146" height="6.6146" />
<rect x="39.6875" y="205.0518" width="6.6146" height="6.6146" />
<rect x="52.9166" y="205.0518" width="6.6146" height="6.6146" />
<rect x="66.1458" y="205.0518" width="6.6146" height="6.6146" />
<rect x="72.7603" y="205.0518" width="6.6146" height="6.6146" />
<rect x="92.6041" y="205.0518" width="6.6146" height="6.6146" />
<rect x="105.8332" y="205.0518" width="6.6146" height="6.6146" />
<rect x="125.6769" y="205.0518" width="6.6146" height="6.6146" />
<rect x="132.2915" y="205.0518" width="6.6146" height="6.6146" />
<rect x="138.9061" y="205.0518" width="6.6146" height="6.6146" />
<rect x="185.2081" y="205.0518" width="6.6146" height="6.6146" />
<rect x="191.8227" y="205.0518" width="6.6146" height="6.6146" />
<rect x="198.4373" y="205.0518" width="6.6146" height="6.6146" />
</g>
<g fill="rgb(0%,0%,0%)">
<rect x="0.0000" y="211.6664" width="6.6146" height="6.6146" />
<rect x="6.6146" y="211.6664" width="6.6146" height="6.6146" />
<rect x="13.2292" y="211.6664" width="6.6146" height="6.6146" />
<rect x="19.8437" y="211.6664" width="6.6146" height="6.6146" />
<rect x="26.4583" y="211.6664" width="6.6146" height="6.6146" />
<rect x="33.0729" y="211.6664" width="6.6146" height="6.6146" />
<rect x="39.6875" y="211.6664" width="6.6146" height="6.6146" />
<rect x="52.9166" y="211.6664" width="6.6146" height="6.6146" />
<rect x="72.7603" y="211.6664" width="6.6146" height="6.6146" />
<rect x="99.2186" y="211.6664" width="6.6146" height="6.6146" />
<rect x="112.4478" y="211.6664" width="6.6146" height="6.6146" />
<rect x="119.0624" y="211.6664" width="6.6146" height="6.6146" />
<rect x="132.2915" y="211.6664" width="6.6146" height="6.6146" />
<rect x="152.1352" y="211.6664" width="6.6146" height="6.6146" />
<rect x="158.7498" y="211.6664" width="6.6146" height="6.6146" />
<rect x="165.3644" y="211.6664" width="6.6146" height="6.6146" />
<rect x="171.9790" y="211.6664" width="6.6146" height="6.6146" />
<rect x="191.8227" y="211.6664" width="6.6146" height="6.6146" />
<rect x="205.0518" y="211.6664" width="6.6146" height="6.6146" />
</g>
</svg>
