<?xml version="1.0" standalone="no"?><!DOCTYPE svg PUBLIC "-//W3C//DTD SVG 1.1//EN" "http://www.w3.org/Graphics/SVG/1.1/DTD/svg11.dtd">
<svg x="0.0000mm" y="0.0000mm" width="244.7400mm" height="244.7400mm" viewBox="0.0000 0.0000 244.7400 244.7400" version="1.1" xmlns="http://www.w3.org/2000/svg" shape-rendering="crispEdges">
<title>TBarCode - 11.17.1.16949</title>
<desc>BarCode licensed to MEM:TEC-IT Datenverarbeitung GmbH Internal License</desc>
<g fill="rgb(0%,0%,0%)">
</g>
<g fill="rgb(100%,100%,100%)">
<rect x="0.0000" y="0.0000" width="244.7400" height="244.7400" />
</g>
<g fill="rgb(0%,0%,0%)">
</g>
<g fill="rgb(0%,0%,0%)">
<rect x="0.0000" y="0.0000" width="6.6146" height="6.6146" />
<rect x="6.6146" y="0.0000" width="6.6146" height="6.6146" />
<rect x="13.2292" y="0.0000" width="6.6146" height="6.6146" />
<rect x="19.8438" y="0.0000" width="6.6146" height="6.6146" />
<rect x="26.4584" y="0.0000" width="6.6146" height="6.6146" />
<rect x="33.0730" y="0.0000" width="6.6146" height="6.6146" />
<rect x="39.6876" y="0.0000" width="6.6146" height="6.6146" />
<rect x="66.1459" y="0.0000" width="6.6146" height="6.6146" />
<rect x="79.3751" y="0.0000" width="6.6146" height="6.6146" />
<rect x="85.9897" y="0.0000" width="6.6146" height="6.6146" />
<rect x="92.6043" y="0.0000" width="6.6146" height="6.6146" />
<rect x="99.2189" y="0.0000" width="6.6146" height="6.6146" />
<rect x="119.0627" y="0.0000" width="6.6146" height="6.6146" />
<rect x="125.6773" y="0.0000" width="6.6146" height="6.6146" />
<rect x="132.2919" y="0.0000" width="6.6146" height="6.6146" />
<rect x="138.9065" y="0.0000" width="6.6146" height="6.6146" />
<rect x="145.5211" y="0.0000" width="6.6146" height="6.6146" />
<rect x="152.1357" y="0.0000" width="6.6146" height="6.6146" />
<rect x="171.9795" y="0.0000" width="6.6146" height="6.6146" />
<rect x="185.2086" y="0.0000" width="6.6146" height="6.6146" />
<rect x="198.4378" y="0.0000" width="6.6146" height="6.6146" />
<rect x="205.0524" y="0.0000" width="6.6146" height="6.6146" />
<rect x="211.6670" y="0.0000" width="6.6146" height="6.6146" />
<rect x="218.2816" y="0.0000" width="6.6146" height="6.6146" />
<rect x="224.8962" y="0.0000" width="6.6146" height="6.6146" />
<rect x="231.5108" y="0.0000" width="6.6146" height="6.6146" />
<rect x="238.1254" y="0.0000" width="6.6146" height="6.6146" />
</g>
<g fill="rgb(0%,0%,0%)">
<rect x="0.0000" y="6.6146" width="6.6146" height="6.6146" />
<rect x="39.6876" y="6.6146" width="6.6146" height="6.6146" />
<rect x="52.9168" y="6.6146" width="6.6146" height="6.6146" />
<rect x="66.1459" y="6.6146" width="6.6146" height="6.6146" />
<rect x="85.9897" y="6.6146" width="6.6146" height="6.6146" />
<rect x="92.6043" y="6.6146" width="6.6146" height="6.6146" />
<rect x="99.2189" y="6.6146" width="6.6146" height="6.6146" />
<rect x="105.8335" y="6.6146" width="6.6146" height="6.6146" />
<rect x="112.4481" y="6.6146" width="6.6146" height="6.6146" />
<rect x="119.0627" y="6.6146" width="6.6146" height="6.6146" />
<rect x="132.2919" y="6.6146" width="6.6146" height="6.6146" />
<rect x="158.7503" y="6.6146" width="6.6146" height="6.6146" />
<rect x="178.5941" y="6.6146" width="6.6146" height="6.6146" />
<rect x="198.4378" y="6.6146" width="6.6146" height="6.6146" />
<rect x="238.1254" y="6.6146" width="6.6146" height="6.6146" />
</g>
<g fill="rgb(0%,0%,0%)">
<rect x="0.0000" y="13.2292" width="6.6146" height="6.6146" />
<rect x="13.2292" y="13.2292" width="6.6146" height="6.6146" />
<rect x="19.8438" y="13.2292" width="6.6146" height="6.6146" />
<rect x="26.4584" y="13.2292" width="6.6146" height="6.6146" />
<rect x="39.6876" y="13.2292" width="6.6146" height="6.6146" />
<rect x="79.3751" y="13.2292" width="6.6146" height="6.6146" />
<rect x="85.9897" y="13.2292" width="6.6146" height="6.6146" />
<rect x="99.2189" y="13.2292" width="6.6146" height="6.6146" />
<rect x="138.9065" y="13.2292" width="6.6146" height="6.6146" />
<rect x="145.5211" y="13.2292" width="6.6146" height="6.6146" />
<rect x="152.1357" y="13.2292" width="6.6146" height="6.6146" />
<rect x="178.5941" y="13.2292" width="6.6146" height="6.6146" />
<rect x="198.4378" y="13.2292" width="6.6146" height="6.6146" />
<rect x="211.6670" y="13.2292" width="6.6146" height="6.6146" />
<rect x="218.2816" y="13.2292" width="6.6146" height="6.6146" />
<rect x="224.8962" y="13.2292" width="6.6146" height="6.6146" />
<rect x="238.1254" y="13.2292" width="6.6146" height="6.6146" />
</g>
<g fill="rgb(0%,0%,0%)">
<rect x="0.0000" y="19.8438" width="6.6146" height="6.6146" />
<rect x="13.2292" y="19.8438" width="6.6146" height="6.6146" />
<rect x="19.8438" y="19.8438" width="6.6146" height="6.6146" />
<rect x="26.4584" y="19.8438" width="6.6146" height="6.6146" />
<rect x="39.6876" y="19.8438" width="6.6146" height="6.6146" />
<rect x="52.9168" y="19.8438" width="6.6146" height="6.6146" />
<rect x="59.5314" y="19.8438" width="6.6146" height="6.6146" />
<rect x="66.1459" y="19.8438" width="6.6146" height="6.6146" />
<rect x="79.3751" y="19.8438" width="6.6146" height="6.6146" />
<rect x="92.6043" y="19.8438" width="6.6146" height="6.6146" />
<rect x="99.2189" y="19.8438" width="6.6146" height="6.6146" />
<rect x="112.4481" y="19.8438" width="6.6146" height="6.6146" />
<rect x="125.6773" y="19.8438" width="6.6146" height="6.6146" />
<rect x="145.5211" y="19.8438" width="6.6146" height="6.6146" />
<rect x="152.1357" y="19.8438" width="6.6146" height="6.6146" />
<rect x="158.7503" y="19.8438" width="6.6146" height="6.6146" />
<rect x="165.3649" y="19.8438" width="6.6146" height="6.6146" />
<rect x="171.9795" y="19.8438" width="6.6146" height="6.6146" />
<rect x="178.5941" y="19.8438" width="6.6146" height="6.6146" />
<rect x="185.2086" y="19.8438" width="6.6146" height="6.6146" />
<rect x="198.4378" y="19.8438" width="6.6146" height="6.6146" />
<rect x="211.6670" y="19.8438" width="6.6146" height="6.6146" />
<rect x="218.2816" y="19.8438" width="6.6146" height="6.6146" />
<rect x="224.8962" y="19.8438" width="6.6146" height="6.6146" />
<rect x="238.1254" y="19.8438" width="6.6146" height="6.6146" />
</g>
<g fill="rgb(0%,0%,0%)">
<rect x="0.0000" y="26.4584" width="6.6146" height="6.6146" />
<rect x="13.2292" y="26.4584" width="6.6146" height="6.6146" />
<rect x="19.8438" y="26.4584" width="6.6146" height="6.6146" />
<rect x="26.4584" y="26.4584" width="6.6146" height="6.6146" />
<rect x="39.6876" y="26.4584" width="6.6146" height="6.6146" />
<rect x="59.5314" y="26.4584" width="6.6146" height="6.6146" />
<rect x="99.2189" y="26.4584" width="6.6146" height="6.6146" />
<rect x="105.8335" y="26.4584" width="6.6146" height="6.6146" />
<rect x="119.0627" y="26.4584" width="6.6146" height="6.6146" />
<rect x="125.6773" y="26.4584" width="6.6146" height="6.6146" />
<rect x="132.2919" y="26.4584" width="6.6146" height="6.6146" />
<rect x="138.9065" y="26.4584" width="6.6146" height="6.6146" />
<rect x="152.1357" y="26.4584" width="6.6146" height="6.6146" />
<rect x="158.7503" y="26.4584" width="6.6146" height="6.6146" />
<rect x="171.9795" y="26.4584" width="6.6146" height="6.6146" />
<rect x="185.2086" y="26.4584" width="6.6146" height="6.6146" />
<rect x="198.4378" y="26.4584" width="6.6146" height="6.6146" />
<rect x="211.6670" y="26.4584" width="6.6146" height="6.6146" />
<rect x="218.2816" y="26.4584" width="6.6146" height="6.6146" />
<rect x="224.8962" y="26.4584" width="6.6146" height="6.6146" />
<rect x="238.1254" y="26.4584" width="6.6146" height="6.6146" />
</g>
<g fill="rgb(0%,0%,0%)">
<rect x="0.0000" y="33.0730" width="6.6146" height="6.6146" />
<rect x="39.6876" y="33.0730" width="6.6146" height="6.6146" />
<rect x="52.9168" y="33.0730" width="6.6146" height="6.6146" />
<rect x="59.5314" y="33.0730" width="6.6146" height="6.6146" />
<rect x="72.7605" y="33.0730" width="6.6146" height="6.6146" />
<rect x="79.3751" y="33.0730" width="6.6146" height="6.6146" />
<rect x="119.0627" y="33.0730" width="6.6146" height="6.6146" />
<rect x="165.3649" y="33.0730" width="6.6146" height="6.6146" />
<rect x="178.5941" y="33.0730" width="6.6146" height="6.6146" />
<rect x="185.2086" y="33.0730" width="6.6146" height="6.6146" />
<rect x="198.4378" y="33.0730" width="6.6146" height="6.6146" />
<rect x="238.1254" y="33.0730" width="6.6146" height="6.6146" />
</g>
<g fill="rgb(0%,0%,0%)">
<rect x="0.0000" y="39.6876" width="6.6146" height="6.6146" />
<rect x="6.6146" y="39.6876" width="6.6146" height="6.6146" />
<rect x="13.2292" y="39.6876" width="6.6146" height="6.6146" />
<rect x="19.8438" y="39.6876" width="6.6146" height="6.6146" />
<rect x="26.4584" y="39.6876" width="6.6146" height="6.6146" />
<rect x="33.0730" y="39.6876" width="6.6146" height="6.6146" />
<rect x="39.6876" y="39.6876" width="6.6146" height="6.6146" />
<rect x="52.9168" y="39.6876" width="6.6146" height="6.6146" />
<rect x="66.1459" y="39.6876" width="6.6146" height="6.6146" />
<rect x="79.3751" y="39.6876" width="6.6146" height="6.6146" />
<rect x="92.6043" y="39.6876" width="6.6146" height="6.6146" />
<rect x="105.8335" y="39.6876" width="6.6146" height="6.6146" />
<rect x="119.0627" y="39.6876" width="6.6146" height="6.6146" />
<rect x="132.2919" y="39.6876" width="6.6146" height="6.6146" />
<rect x="145.5211" y="39.6876" width="6.6146" height="6.6146" />
<rect x="158.7503" y="39.6876" width="6.6146" height="6.6146" />
<rect x="171.9795" y="39.6876" width="6.6146" height="6.6146" />
<rect x="185.2086" y="39.6876" width="6.6146" height="6.6146" />
<rect x="198.4378" y="39.6876" width="6.6146" height="6.6146" />
<rect x="205.0524" y="39.6876" width="6.6146" height="6.6146" />
<rect x="211.6670" y="39.6876" width="6.6146" height="6.6146" />
<rect x="218.2816" y="39.6876" width="6.6146" height="6.6146" />
<rect x="224.8962" y="39.6876" width="6.6146" height="6.6146" />
<rect x="231.5108" y="39.6876" width="6.6146" height="6.6146" />
<rect x="238.1254" y="39.6876" width="6.6146" height="6.6146" />
</g>
<g fill="rgb(0%,0%,0%)">
<rect x="59.5314" y="46.3022" width="6.6146" height="6.6146" />
<rect x="66.1459" y="46.3022" width="6.6146" height="6.6146" />
<rect x="72.7605" y="46.3022" width="6.6146" height="6.6146" />
<rect x="92.6043" y="46.3022" width="6.6146" height="6.6146" />
<rect x="105.8335" y="46.3022" width="6.6146" height="6.6146" />
<rect x="125.6773" y="46.3022" width="6.6146" height="6.6146" />
<rect x="132.2919" y="46.3022" width="6.6146" height="6.6146" />
<rect x="138.9065" y="46.3022" width="6.6146" height="6.6146" />
<rect x="145.5211" y="46.3022" width="6.6146" height="6.6146" />
<rect x="171.9795" y="46.3022" width="6.6146" height="6.6146" />
<rect x="178.5941" y="46.3022" width="6.6146" height="6.6146" />
</g>
<g fill="rgb(0%,0%,0%)">
<rect x="0.0000" y="52.9168" width="6.6146" height="6.6146" />
<rect x="6.6146" y="52.9168" width="6.6146" height="6.6146" />
<rect x="13.2292" y="52.9168" width="6.6146" height="6.6146" />
<rect x="19.8438" y="52.9168" width="6.6146" height="6.6146" />
<rect x="26.4584" y="52.9168" width="6.6146" height="6.6146" />
<rect x="39.6876" y="52.9168" width="6.6146" height="6.6146" />
<rect x="46.3022" y="52.9168" width="6.6146" height="6.6146" />
<rect x="52.9168" y="52.9168" width="6.6146" height="6.6146" />
<rect x="59.5314" y="52.9168" width="6.6146" height="6.6146" />
<rect x="72.7605" y="52.9168" width="6.6146" height="6.6146" />
<rect x="112.4481" y="52.9168" width="6.6146" height="6.6146" />
<rect x="125.6773" y="52.9168" width="6.6146" height="6.6146" />
<rect x="145.5211" y="52.9168" width="6.6146" height="6.6146" />
<rect x="152.1357" y="52.9168" width="6.6146" height="6.6146" />
<rect x="158.7503" y="52.9168" width="6.6146" height="6.6146" />
<rect x="165.3649" y="52.9168" width="6.6146" height="6.6146" />
<rect x="178.5941" y="52.9168" width="6.6146" height="6.6146" />
<rect x="191.8232" y="52.9168" width="6.6146" height="6.6146" />
<rect x="205.0524" y="52.9168" width="6.6146" height="6.6146" />
<rect x="218.2816" y="52.9168" width="6.6146" height="6.6146" />
<rect x="231.5108" y="52.9168" width="6.6146" height="6.6146" />
</g>
<g fill="rgb(0%,0%,0%)">
<rect x="6.6146" y="59.5314" width="6.6146" height="6.6146" />
<rect x="13.2292" y="59.5314" width="6.6146" height="6.6146" />
<rect x="19.8438" y="59.5314" width="6.6146" height="6.6146" />
<rect x="33.0730" y="59.5314" width="6.6146" height="6.6146" />
<rect x="46.3022" y="59.5314" width="6.6146" height="6.6146" />
<rect x="52.9168" y="59.5314" width="6.6146" height="6.6146" />
<rect x="59.5314" y="59.5314" width="6.6146" height="6.6146" />
<rect x="66.1459" y="59.5314" width="6.6146" height="6.6146" />
<rect x="79.3751" y="59.5314" width="6.6146" height="6.6146" />
<rect x="85.9897" y="59.5314" width="6.6146" height="6.6146" />
<rect x="92.6043" y="59.5314" width="6.6146" height="6.6146" />
<rect x="99.2189" y="59.5314" width="6.6146" height="6.6146" />
<rect x="112.4481" y="59.5314" width="6.6146" height="6.6146" />
<rect x="119.0627" y="59.5314" width="6.6146" height="6.6146" />
<rect x="125.6773" y="59.5314" width="6.6146" height="6.6146" />
<rect x="138.9065" y="59.5314" width="6.6146" height="6.6146" />
<rect x="152.1357" y="59.5314" width="6.6146" height="6.6146" />
<rect x="165.3649" y="59.5314" width="6.6146" height="6.6146" />
<rect x="185.2086" y="59.5314" width="6.6146" height="6.6146" />
<rect x="205.0524" y="59.5314" width="6.6146" height="6.6146" />
<rect x="218.2816" y="59.5314" width="6.6146" height="6.6146" />
<rect x="224.8962" y="59.5314" width="6.6146" height="6.6146" />
<rect x="231.5108" y="59.5314" width="6.6146" height="6.6146" />
</g>
<g fill="rgb(0%,0%,0%)">
<rect x="0.0000" y="66.1459" width="6.6146" height="6.6146" />
<rect x="26.4584" y="66.1459" width="6.6146" height="6.6146" />
<rect x="33.0730" y="66.1459" width="6.6146" height="6.6146" />
<rect x="39.6876" y="66.1459" width="6.6146" height="6.6146" />
<rect x="52.9168" y="66.1459" width="6.6146" height="6.6146" />
<rect x="85.9897" y="66.1459" width="6.6146" height="6.6146" />
<rect x="92.6043" y="66.1459" width="6.6146" height="6.6146" />
<rect x="99.2189" y="66.1459" width="6.6146" height="6.6146" />
<rect x="105.8335" y="66.1459" width="6.6146" height="6.6146" />
<rect x="138.9065" y="66.1459" width="6.6146" height="6.6146" />
<rect x="165.3649" y="66.1459" width="6.6146" height="6.6146" />
<rect x="171.9795" y="66.1459" width="6.6146" height="6.6146" />
<rect x="178.5941" y="66.1459" width="6.6146" height="6.6146" />
<rect x="185.2086" y="66.1459" width="6.6146" height="6.6146" />
<rect x="191.8232" y="66.1459" width="6.6146" height="6.6146" />
<rect x="198.4378" y="66.1459" width="6.6146" height="6.6146" />
<rect x="218.2816" y="66.1459" width="6.6146" height="6.6146" />
<rect x="224.8962" y="66.1459" width="6.6146" height="6.6146" />
<rect x="238.1254" y="66.1459" width="6.6146" height="6.6146" />
</g>
<g fill="rgb(0%,0%,0%)">
<rect x="13.2292" y="72.7605" width="6.6146" height="6.6146" />
<rect x="19.8438" y="72.7605" width="6.6146" height="6.6146" />
<rect x="33.0730" y="72.7605" width="6.6146" height="6.6146" />
<rect x="46.3022" y="72.7605" width="6.6146" height="6.6146" />
<rect x="52.9168" y="72.7605" width="6.6146" height="6.6146" />
<rect x="79.3751" y="72.7605" width="6.6146" height="6.6146" />
<rect x="85.9897" y="72.7605" width="6.6146" height="6.6146" />
<rect x="99.2189" y="72.7605" width="6.6146" height="6.6146" />
<rect x="105.8335" y="72.7605" width="6.6146" height="6.6146" />
<rect x="125.6773" y="72.7605" width="6.6146" height="6.6146" />
<rect x="132.2919" y="72.7605" width="6.6146" height="6.6146" />
<rect x="138.9065" y="72.7605" width="6.6146" height="6.6146" />
<rect x="145.5211" y="72.7605" width="6.6146" height="6.6146" />
<rect x="152.1357" y="72.7605" width="6.6146" height="6.6146" />
<rect x="171.9795" y="72.7605" width="6.6146" height="6.6146" />
<rect x="185.2086" y="72.7605" width="6.6146" height="6.6146" />
<rect x="191.8232" y="72.7605" width="6.6146" height="6.6146" />
<rect x="198.4378" y="72.7605" width="6.6146" height="6.6146" />
<rect x="205.0524" y="72.7605" width="6.6146" height="6.6146" />
<rect x="211.6670" y="72.7605" width="6.6146" height="6.6146" />
<rect x="218.2816" y="72.7605" width="6.6146" height="6.6146" />
<rect x="231.5108" y="72.7605" width="6.6146" height="6.6146" />
</g>
<g fill="rgb(0%,0%,0%)">
<rect x="0.0000" y="79.3751" width="6.6146" height="6.6146" />
<rect x="13.2292" y="79.3751" width="6.6146" height="6.6146" />
<rect x="33.0730" y="79.3751" width="6.6146" height="6.6146" />
<rect x="39.6876" y="79.3751" width="6.6146" height="6.6146" />
<rect x="46.3022" y="79.3751" width="6.6146" height="6.6146" />
<rect x="79.3751" y="79.3751" width="6.6146" height="6.6146" />
<rect x="92.6043" y="79.3751" width="6.6146" height="6.6146" />
<rect x="99.2189" y="79.3751" width="6.6146" height="6.6146" />
<rect x="112.4481" y="79.3751" width="6.6146" height="6.6146" />
<rect x="125.6773" y="79.3751" width="6.6146" height="6.6146" />
<rect x="145.5211" y="79.3751" width="6.6146" height="6.6146" />
<rect x="152.1357" y="79.3751" width="6.6146" height="6.6146" />
<rect x="158.7503" y="79.3751" width="6.6146" height="6.6146" />
<rect x="165.3649" y="79.3751" width="6.6146" height="6.6146" />
<rect x="171.9795" y="79.3751" width="6.6146" height="6.6146" />
<rect x="198.4378" y="79.3751" width="6.6146" height="6.6146" />
<rect x="211.6670" y="79.3751" width="6.6146" height="6.6146" />
<rect x="218.2816" y="79.3751" width="6.6146" height="6.6146" />
<rect x="224.8962" y="79.3751" width="6.6146" height="6.6146" />
<rect x="238.1254" y="79.3751" width="6.6146" height="6.6146" />
</g>
<g fill="rgb(0%,0%,0%)">
<rect x="0.0000" y="85.9897" width="6.6146" height="6.6146" />
<rect x="26.4584" y="85.9897" width="6.6146" height="6.6146" />
<rect x="33.0730" y="85.9897" width="6.6146" height="6.6146" />
<rect x="59.5314" y="85.9897" width="6.6146" height="6.6146" />
<rect x="66.1459" y="85.9897" width="6.6146" height="6.6146" />
<rect x="105.8335" y="85.9897" width="6.6146" height="6.6146" />
<rect x="119.0627" y="85.9897" width="6.6146" height="6.6146" />
<rect x="125.6773" y="85.9897" width="6.6146" height="6.6146" />
<rect x="132.2919" y="85.9897" width="6.6146" height="6.6146" />
<rect x="152.1357" y="85.9897" width="6.6146" height="6.6146" />
<rect x="205.0524" y="85.9897" width="6.6146" height="6.6146" />
<rect x="224.8962" y="85.9897" width="6.6146" height="6.6146" />
<rect x="231.5108" y="85.9897" width="6.6146" height="6.6146" />
</g>
<g fill="rgb(0%,0%,0%)">
<rect x="0.0000" y="92.6043" width="6.6146" height="6.6146" />
<rect x="19.8438" y="92.6043" width="6.6146" height="6.6146" />
<rect x="33.0730" y="92.6043" width="6.6146" height="6.6146" />
<rect x="39.6876" y="92.6043" width="6.6146" height="6.6146" />
<rect x="66.1459" y="92.6043" width="6.6146" height="6.6146" />
<rect x="72.7605" y="92.6043" width="6.6146" height="6.6146" />
<rect x="79.3751" y="92.6043" width="6.6146" height="6.6146" />
<rect x="99.2189" y="92.6043" width="6.6146" height="6.6146" />
<rect x="105.8335" y="92.6043" width="6.6146" height="6.6146" />
<rect x="132.2919" y="92.6043" width="6.6146" height="6.6146" />
<rect x="145.5211" y="92.6043" width="6.6146" height="6.6146" />
<rect x="171.9795" y="92.6043" width="6.6146" height="6.6146" />
<rect x="178.5941" y="92.6043" width="6.6146" height="6.6146" />
<rect x="185.2086" y="92.6043" width="6.6146" height="6.6146" />
<rect x="191.8232" y="92.6043" width="6.6146" height="6.6146" />
<rect x="205.0524" y="92.6043" width="6.6146" height="6.6146" />
<rect x="211.6670" y="92.6043" width="6.6146" height="6.6146" />
<rect x="224.8962" y="92.6043" width="6.6146" height="6.6146" />
<rect x="231.5108" y="92.6043" width="6.6146" height="6.6146" />
<rect x="238.1254" y="92.6043" width="6.6146" height="6.6146" />
</g>
<g fill="rgb(0%,0%,0%)">
<rect x="0.0000" y="99.2189" width="6.6146" height="6.6146" />
<rect x="13.2292" y="99.2189" width="6.6146" height="6.6146" />
<rect x="19.8438" y="99.2189" width="6.6146" height="6.6146" />
<rect x="46.3022" y="99.2189" width="6.6146" height="6.6146" />
<rect x="59.5314" y="99.2189" width="6.6146" height="6.6146" />
<rect x="72.7605" y="99.2189" width="6.6146" height="6.6146" />
<rect x="92.6043" y="99.2189" width="6.6146" height="6.6146" />
<rect x="99.2189" y="99.2189" width="6.6146" height="6.6146" />
<rect x="105.8335" y="99.2189" width="6.6146" height="6.6146" />
<rect x="138.9065" y="99.2189" width="6.6146" height="6.6146" />
<rect x="152.1357" y="99.2189" width="6.6146" height="6.6146" />
<rect x="158.7503" y="99.2189" width="6.6146" height="6.6146" />
<rect x="178.5941" y="99.2189" width="6.6146" height="6.6146" />
<rect x="185.2086" y="99.2189" width="6.6146" height="6.6146" />
<rect x="205.0524" y="99.2189" width="6.6146" height="6.6146" />
<rect x="218.2816" y="99.2189" width="6.6146" height="6.6146" />
<rect x="238.1254" y="99.2189" width="6.6146" height="6.6146" />
</g>
<g fill="rgb(0%,0%,0%)">
<rect x="0.0000" y="105.8335" width="6.6146" height="6.6146" />
<rect x="13.2292" y="105.8335" width="6.6146" height="6.6146" />
<rect x="19.8438" y="105.8335" width="6.6146" height="6.6146" />
<rect x="39.6876" y="105.8335" width="6.6146" height="6.6146" />
<rect x="52.9168" y="105.8335" width="6.6146" height="6.6146" />
<rect x="66.1459" y="105.8335" width="6.6146" height="6.6146" />
<rect x="72.7605" y="105.8335" width="6.6146" height="6.6146" />
<rect x="99.2189" y="105.8335" width="6.6146" height="6.6146" />
<rect x="112.4481" y="105.8335" width="6.6146" height="6.6146" />
<rect x="125.6773" y="105.8335" width="6.6146" height="6.6146" />
<rect x="145.5211" y="105.8335" width="6.6146" height="6.6146" />
<rect x="158.7503" y="105.8335" width="6.6146" height="6.6146" />
<rect x="165.3649" y="105.8335" width="6.6146" height="6.6146" />
<rect x="171.9795" y="105.8335" width="6.6146" height="6.6146" />
<rect x="178.5941" y="105.8335" width="6.6146" height="6.6146" />
<rect x="191.8232" y="105.8335" width="6.6146" height="6.6146" />
<rect x="198.4378" y="105.8335" width="6.6146" height="6.6146" />
<rect x="211.6670" y="105.8335" width="6.6146" height="6.6146" />
<rect x="218.2816" y="105.8335" width="6.6146" height="6.6146" />
<rect x="224.8962" y="105.8335" width="6.6146" height="6.6146" />
<rect x="238.1254" y="105.8335" width="6.6146" height="6.6146" />
</g>
<g fill="rgb(0%,0%,0%)">
<rect x="19.8438" y="112.4481" width="6.6146" height="6.6146" />
<rect x="26.4584" y="112.4481" width="6.6146" height="6.6146" />
<rect x="52.9168" y="112.4481" width="6.6146" height="6.6146" />
<rect x="59.5314" y="112.4481" width="6.6146" height="6.6146" />
<rect x="66.1459" y="112.4481" width="6.6146" height="6.6146" />
<rect x="79.3751" y="112.4481" width="6.6146" height="6.6146" />
<rect x="85.9897" y="112.4481" width="6.6146" height="6.6146" />
<rect x="92.6043" y="112.4481" width="6.6146" height="6.6146" />
<rect x="105.8335" y="112.4481" width="6.6146" height="6.6146" />
<rect x="125.6773" y="112.4481" width="6.6146" height="6.6146" />
<rect x="132.2919" y="112.4481" width="6.6146" height="6.6146" />
<rect x="152.1357" y="112.4481" width="6.6146" height="6.6146" />
<rect x="185.2086" y="112.4481" width="6.6146" height="6.6146" />
<rect x="205.0524" y="112.4481" width="6.6146" height="6.6146" />
<rect x="224.8962" y="112.4481" width="6.6146" height="6.6146" />
<rect x="231.5108" y="112.4481" width="6.6146" height="6.6146" />
</g>
<g fill="rgb(0%,0%,0%)">
<rect x="0.0000" y="119.0627" width="6.6146" height="6.6146" />
<rect x="39.6876" y="119.0627" width="6.6146" height="6.6146" />
<rect x="59.5314" y="119.0627" width="6.6146" height="6.6146" />
<rect x="66.1459" y="119.0627" width="6.6146" height="6.6146" />
<rect x="85.9897" y="119.0627" width="6.6146" height="6.6146" />
<rect x="92.6043" y="119.0627" width="6.6146" height="6.6146" />
<rect x="99.2189" y="119.0627" width="6.6146" height="6.6146" />
<rect x="112.4481" y="119.0627" width="6.6146" height="6.6146" />
<rect x="119.0627" y="119.0627" width="6.6146" height="6.6146" />
<rect x="132.2919" y="119.0627" width="6.6146" height="6.6146" />
<rect x="145.5211" y="119.0627" width="6.6146" height="6.6146" />
<rect x="171.9795" y="119.0627" width="6.6146" height="6.6146" />
<rect x="178.5941" y="119.0627" width="6.6146" height="6.6146" />
<rect x="198.4378" y="119.0627" width="6.6146" height="6.6146" />
<rect x="205.0524" y="119.0627" width="6.6146" height="6.6146" />
<rect x="211.6670" y="119.0627" width="6.6146" height="6.6146" />
<rect x="224.8962" y="119.0627" width="6.6146" height="6.6146" />
<rect x="231.5108" y="119.0627" width="6.6146" height="6.6146" />
<rect x="238.1254" y="119.0627" width="6.6146" height="6.6146" />
</g>
<g fill="rgb(0%,0%,0%)">
<rect x="19.8438" y="125.6773" width="6.6146" height="6.6146" />
<rect x="33.0730" y="125.6773" width="6.6146" height="6.6146" />
<rect x="46.3022" y="125.6773" width="6.6146" height="6.6146" />
<rect x="59.5314" y="125.6773" width="6.6146" height="6.6146" />
<rect x="66.1459" y="125.6773" width="6.6146" height="6.6146" />
<rect x="79.3751" y="125.6773" width="6.6146" height="6.6146" />
<rect x="85.9897" y="125.6773" width="6.6146" height="6.6146" />
<rect x="125.6773" y="125.6773" width="6.6146" height="6.6146" />
<rect x="138.9065" y="125.6773" width="6.6146" height="6.6146" />
<rect x="171.9795" y="125.6773" width="6.6146" height="6.6146" />
<rect x="191.8232" y="125.6773" width="6.6146" height="6.6146" />
<rect x="205.0524" y="125.6773" width="6.6146" height="6.6146" />
<rect x="211.6670" y="125.6773" width="6.6146" height="6.6146" />
<rect x="238.1254" y="125.6773" width="6.6146" height="6.6146" />
</g>
<g fill="rgb(0%,0%,0%)">
<rect x="13.2292" y="132.2919" width="6.6146" height="6.6146" />
<rect x="19.8438" y="132.2919" width="6.6146" height="6.6146" />
<rect x="26.4584" y="132.2919" width="6.6146" height="6.6146" />
<rect x="33.0730" y="132.2919" width="6.6146" height="6.6146" />
<rect x="39.6876" y="132.2919" width="6.6146" height="6.6146" />
<rect x="79.3751" y="132.2919" width="6.6146" height="6.6146" />
<rect x="92.6043" y="132.2919" width="6.6146" height="6.6146" />
<rect x="99.2189" y="132.2919" width="6.6146" height="6.6146" />
<rect x="105.8335" y="132.2919" width="6.6146" height="6.6146" />
<rect x="112.4481" y="132.2919" width="6.6146" height="6.6146" />
<rect x="125.6773" y="132.2919" width="6.6146" height="6.6146" />
<rect x="145.5211" y="132.2919" width="6.6146" height="6.6146" />
<rect x="152.1357" y="132.2919" width="6.6146" height="6.6146" />
<rect x="165.3649" y="132.2919" width="6.6146" height="6.6146" />
<rect x="171.9795" y="132.2919" width="6.6146" height="6.6146" />
<rect x="178.5941" y="132.2919" width="6.6146" height="6.6146" />
<rect x="185.2086" y="132.2919" width="6.6146" height="6.6146" />
<rect x="191.8232" y="132.2919" width="6.6146" height="6.6146" />
<rect x="198.4378" y="132.2919" width="6.6146" height="6.6146" />
<rect x="211.6670" y="132.2919" width="6.6146" height="6.6146" />
<rect x="224.8962" y="132.2919" width="6.6146" height="6.6146" />
<rect x="231.5108" y="132.2919" width="6.6146" height="6.6146" />
<rect x="238.1254" y="132.2919" width="6.6146" height="6.6146" />
</g>
<g fill="rgb(0%,0%,0%)">
<rect x="0.0000" y="138.9065" width="6.6146" height="6.6146" />
<rect x="52.9168" y="138.9065" width="6.6146" height="6.6146" />
<rect x="59.5314" y="138.9065" width="6.6146" height="6.6146" />
<rect x="105.8335" y="138.9065" width="6.6146" height="6.6146" />
<rect x="125.6773" y="138.9065" width="6.6146" height="6.6146" />
<rect x="132.2919" y="138.9065" width="6.6146" height="6.6146" />
<rect x="138.9065" y="138.9065" width="6.6146" height="6.6146" />
<rect x="152.1357" y="138.9065" width="6.6146" height="6.6146" />
<rect x="158.7503" y="138.9065" width="6.6146" height="6.6146" />
<rect x="171.9795" y="138.9065" width="6.6146" height="6.6146" />
<rect x="185.2086" y="138.9065" width="6.6146" height="6.6146" />
<rect x="205.0524" y="138.9065" width="6.6146" height="6.6146" />
<rect x="218.2816" y="138.9065" width="6.6146" height="6.6146" />
<rect x="231.5108" y="138.9065" width="6.6146" height="6.6146" />
</g>
<g fill="rgb(0%,0%,0%)">
<rect x="6.6146" y="145.5211" width="6.6146" height="6.6146" />
<rect x="13.2292" y="145.5211" width="6.6146" height="6.6146" />
<rect x="19.8438" y="145.5211" width="6.6146" height="6.6146" />
<rect x="26.4584" y="145.5211" width="6.6146" height="6.6146" />
<rect x="33.0730" y="145.5211" width="6.6146" height="6.6146" />
<rect x="39.6876" y="145.5211" width="6.6146" height="6.6146" />
<rect x="66.1459" y="145.5211" width="6.6146" height="6.6146" />
<rect x="72.7605" y="145.5211" width="6.6146" height="6.6146" />
<rect x="79.3751" y="145.5211" width="6.6146" height="6.6146" />
<rect x="99.2189" y="145.5211" width="6.6146" height="6.6146" />
<rect x="112.4481" y="145.5211" width="6.6146" height="6.6146" />
<rect x="119.0627" y="145.5211" width="6.6146" height="6.6146" />
<rect x="132.2919" y="145.5211" width="6.6146" height="6.6146" />
<rect x="138.9065" y="145.5211" width="6.6146" height="6.6146" />
<rect x="145.5211" y="145.5211" width="6.6146" height="6.6146" />
<rect x="158.7503" y="145.5211" width="6.6146" height="6.6146" />
<rect x="171.9795" y="145.5211" width="6.6146" height="6.6146" />
<rect x="178.5941" y="145.5211" width="6.6146" height="6.6146" />
<rect x="185.2086" y="145.5211" width="6.6146" height="6.6146" />
<rect x="191.8232" y="145.5211" width="6.6146" height="6.6146" />
<rect x="205.0524" y="145.5211" width="6.6146" height="6.6146" />
<rect x="211.6670" y="145.5211" width="6.6146" height="6.6146" />
<rect x="218.2816" y="145.5211" width="6.6146" height="6.6146" />
<rect x="231.5108" y="145.5211" width="6.6146" height="6.6146" />
<rect x="238.1254" y="145.5211" width="6.6146" height="6.6146" />
</g>
<g fill="rgb(0%,0%,0%)">
<rect x="0.0000" y="152.1357" width="6.6146" height="6.6146" />
<rect x="6.6146" y="152.1357" width="6.6146" height="6.6146" />
<rect x="13.2292" y="152.1357" width="6.6146" height="6.6146" />
<rect x="19.8438" y="152.1357" width="6.6146" height="6.6146" />
<rect x="33.0730" y="152.1357" width="6.6146" height="6.6146" />
<rect x="59.5314" y="152.1357" width="6.6146" height="6.6146" />
<rect x="66.1459" y="152.1357" width="6.6146" height="6.6146" />
<rect x="72.7605" y="152.1357" width="6.6146" height="6.6146" />
<rect x="92.6043" y="152.1357" width="6.6146" height="6.6146" />
<rect x="105.8335" y="152.1357" width="6.6146" height="6.6146" />
<rect x="138.9065" y="152.1357" width="6.6146" height="6.6146" />
<rect x="145.5211" y="152.1357" width="6.6146" height="6.6146" />
<rect x="185.2086" y="152.1357" width="6.6146" height="6.6146" />
<rect x="191.8232" y="152.1357" width="6.6146" height="6.6146" />
<rect x="205.0524" y="152.1357" width="6.6146" height="6.6146" />
<rect x="211.6670" y="152.1357" width="6.6146" height="6.6146" />
<rect x="238.1254" y="152.1357" width="6.6146" height="6.6146" />
</g>
<g fill="rgb(0%,0%,0%)">
<rect x="0.0000" y="158.7503" width="6.6146" height="6.6146" />
<rect x="6.6146" y="158.7503" width="6.6146" height="6.6146" />
<rect x="13.2292" y="158.7503" width="6.6146" height="6.6146" />
<rect x="19.8438" y="158.7503" width="6.6146" height="6.6146" />
<rect x="26.4584" y="158.7503" width="6.6146" height="6.6146" />
<rect x="33.0730" y="158.7503" width="6.6146" height="6.6146" />
<rect x="39.6876" y="158.7503" width="6.6146" height="6.6146" />
<rect x="52.9168" y="158.7503" width="6.6146" height="6.6146" />
<rect x="72.7605" y="158.7503" width="6.6146" height="6.6146" />
<rect x="99.2189" y="158.7503" width="6.6146" height="6.6146" />
<rect x="112.4481" y="158.7503" width="6.6146" height="6.6146" />
<rect x="125.6773" y="158.7503" width="6.6146" height="6.6146" />
<rect x="132.2919" y="158.7503" width="6.6146" height="6.6146" />
<rect x="145.5211" y="158.7503" width="6.6146" height="6.6146" />
<rect x="158.7503" y="158.7503" width="6.6146" height="6.6146" />
<rect x="165.3649" y="158.7503" width="6.6146" height="6.6146" />
<rect x="171.9795" y="158.7503" width="6.6146" height="6.6146" />
<rect x="191.8232" y="158.7503" width="6.6146" height="6.6146" />
<rect x="198.4378" y="158.7503" width="6.6146" height="6.6146" />
<rect x="211.6670" y="158.7503" width="6.6146" height="6.6146" />
<rect x="218.2816" y="158.7503" width="6.6146" height="6.6146" />
<rect x="224.8962" y="158.7503" width="6.6146" height="6.6146" />
<rect x="231.5108" y="158.7503" width="6.6146" height="6.6146" />
<rect x="238.1254" y="158.7503" width="6.6146" height="6.6146" />
</g>
<g fill="rgb(0%,0%,0%)">
<rect x="0.0000" y="165.3649" width="6.6146" height="6.6146" />
<rect x="13.2292" y="165.3649" width="6.6146" height="6.6146" />
<rect x="26.4584" y="165.3649" width="6.6146" height="6.6146" />
<rect x="33.0730" y="165.3649" width="6.6146" height="6.6146" />
<rect x="59.5314" y="165.3649" width="6.6146" height="6.6146" />
<rect x="79.3751" y="165.3649" width="6.6146" height="6.6146" />
<rect x="85.9897" y="165.3649" width="6.6146" height="6.6146" />
<rect x="92.6043" y="165.3649" width="6.6146" height="6.6146" />
<rect x="105.8335" y="165.3649" width="6.6146" height="6.6146" />
<rect x="119.0627" y="165.3649" width="6.6146" height="6.6146" />
<rect x="125.6773" y="165.3649" width="6.6146" height="6.6146" />
<rect x="132.2919" y="165.3649" width="6.6146" height="6.6146" />
<rect x="138.9065" y="165.3649" width="6.6146" height="6.6146" />
<rect x="145.5211" y="165.3649" width="6.6146" height="6.6146" />
<rect x="152.1357" y="165.3649" width="6.6146" height="6.6146" />
<rect x="185.2086" y="165.3649" width="6.6146" height="6.6146" />
<rect x="205.0524" y="165.3649" width="6.6146" height="6.6146" />
<rect x="224.8962" y="165.3649" width="6.6146" height="6.6146" />
<rect x="231.5108" y="165.3649" width="6.6146" height="6.6146" />
</g>
<g fill="rgb(0%,0%,0%)">
<rect x="0.0000" y="171.9795" width="6.6146" height="6.6146" />
<rect x="19.8438" y="171.9795" width="6.6146" height="6.6146" />
<rect x="26.4584" y="171.9795" width="6.6146" height="6.6146" />
<rect x="39.6876" y="171.9795" width="6.6146" height="6.6146" />
<rect x="66.1459" y="171.9795" width="6.6146" height="6.6146" />
<rect x="85.9897" y="171.9795" width="6.6146" height="6.6146" />
<rect x="92.6043" y="171.9795" width="6.6146" height="6.6146" />
<rect x="99.2189" y="171.9795" width="6.6146" height="6.6146" />
<rect x="112.4481" y="171.9795" width="6.6146" height="6.6146" />
<rect x="119.0627" y="171.9795" width="6.6146" height="6.6146" />
<rect x="132.2919" y="171.9795" width="6.6146" height="6.6146" />
<rect x="178.5941" y="171.9795" width="6.6146" height="6.6146" />
<rect x="191.8232" y="171.9795" width="6.6146" height="6.6146" />
<rect x="205.0524" y="171.9795" width="6.6146" height="6.6146" />
<rect x="211.6670" y="171.9795" width="6.6146" height="6.6146" />
<rect x="218.2816" y="171.9795" width="6.6146" height="6.6146" />
<rect x="231.5108" y="171.9795" width="6.6146" height="6.6146" />
<rect x="238.1254" y="171.9795" width="6.6146" height="6.6146" />
</g>
<g fill="rgb(0%,0%,0%)">
<rect x="0.0000" y="178.5941" width="6.6146" height="6.6146" />
<rect x="26.4584" y="178.5941" width="6.6146" height="6.6146" />
<rect x="52.9168" y="178.5941" width="6.6146" height="6.6146" />
<rect x="79.3751" y="178.5941" width="6.6146" height="6.6146" />
<rect x="85.9897" y="178.5941" width="6.6146" height="6.6146" />
<rect x="105.8335" y="178.5941" width="6.6146" height="6.6146" />
<rect x="138.9065" y="178.5941" width="6.6146" height="6.6146" />
<rect x="158.7503" y="178.5941" width="6.6146" height="6.6146" />
<rect x="171.9795" y="178.5941" width="6.6146" height="6.6146" />
<rect x="178.5941" y="178.5941" width="6.6146" height="6.6146" />
<rect x="185.2086" y="178.5941" width="6.6146" height="6.6146" />
<rect x="191.8232" y="178.5941" width="6.6146" height="6.6146" />
<rect x="198.4378" y="178.5941" width="6.6146" height="6.6146" />
<rect x="205.0524" y="178.5941" width="6.6146" height="6.6146" />
<rect x="238.1254" y="178.5941" width="6.6146" height="6.6146" />
</g>
<g fill="rgb(0%,0%,0%)">
<rect x="0.0000" y="185.2086" width="6.6146" height="6.6146" />
<rect x="13.2292" y="185.2086" width="6.6146" height="6.6146" />
<rect x="19.8438" y="185.2086" width="6.6146" height="6.6146" />
<rect x="26.4584" y="185.2086" width="6.6146" height="6.6146" />
<rect x="33.0730" y="185.2086" width="6.6146" height="6.6146" />
<rect x="39.6876" y="185.2086" width="6.6146" height="6.6146" />
<rect x="59.5314" y="185.2086" width="6.6146" height="6.6146" />
<rect x="66.1459" y="185.2086" width="6.6146" height="6.6146" />
<rect x="79.3751" y="185.2086" width="6.6146" height="6.6146" />
<rect x="92.6043" y="185.2086" width="6.6146" height="6.6146" />
<rect x="112.4481" y="185.2086" width="6.6146" height="6.6146" />
<rect x="152.1357" y="185.2086" width="6.6146" height="6.6146" />
<rect x="158.7503" y="185.2086" width="6.6146" height="6.6146" />
<rect x="165.3649" y="185.2086" width="6.6146" height="6.6146" />
<rect x="171.9795" y="185.2086" width="6.6146" height="6.6146" />
<rect x="178.5941" y="185.2086" width="6.6146" height="6.6146" />
<rect x="185.2086" y="185.2086" width="6.6146" height="6.6146" />
<rect x="191.8232" y="185.2086" width="6.6146" height="6.6146" />
<rect x="198.4378" y="185.2086" width="6.6146" height="6.6146" />
<rect x="205.0524" y="185.2086" width="6.6146" height="6.6146" />
<rect x="211.6670" y="185.2086" width="6.6146" height="6.6146" />
<rect x="218.2816" y="185.2086" width="6.6146" height="6.6146" />
<rect x="224.8962" y="185.2086" width="6.6146" height="6.6146" />
</g>
<g fill="rgb(0%,0%,0%)">
<rect x="52.9168" y="191.8232" width="6.6146" height="6.6146" />
<rect x="59.5314" y="191.8232" width="6.6146" height="6.6146" />
<rect x="66.1459" y="191.8232" width="6.6146" height="6.6146" />
<rect x="119.0627" y="191.8232" width="6.6146" height="6.6146" />
<rect x="125.6773" y="191.8232" width="6.6146" height="6.6146" />
<rect x="132.2919" y="191.8232" width="6.6146" height="6.6146" />
<rect x="152.1357" y="191.8232" width="6.6146" height="6.6146" />
<rect x="165.3649" y="191.8232" width="6.6146" height="6.6146" />
<rect x="185.2086" y="191.8232" width="6.6146" height="6.6146" />
<rect x="211.6670" y="191.8232" width="6.6146" height="6.6146" />
<rect x="218.2816" y="191.8232" width="6.6146" height="6.6146" />
</g>
<g fill="rgb(0%,0%,0%)">
<rect x="0.0000" y="198.4378" width="6.6146" height="6.6146" />
<rect x="6.6146" y="198.4378" width="6.6146" height="6.6146" />
<rect x="13.2292" y="198.4378" width="6.6146" height="6.6146" />
<rect x="19.8438" y="198.4378" width="6.6146" height="6.6146" />
<rect x="26.4584" y="198.4378" width="6.6146" height="6.6146" />
<rect x="33.0730" y="198.4378" width="6.6146" height="6.6146" />
<rect x="39.6876" y="198.4378" width="6.6146" height="6.6146" />
<rect x="52.9168" y="198.4378" width="6.6146" height="6.6146" />
<rect x="66.1459" y="198.4378" width="6.6146" height="6.6146" />
<rect x="72.7605" y="198.4378" width="6.6146" height="6.6146" />
<rect x="79.3751" y="198.4378" width="6.6146" height="6.6146" />
<rect x="99.2189" y="198.4378" width="6.6146" height="6.6146" />
<rect x="119.0627" y="198.4378" width="6.6146" height="6.6146" />
<rect x="145.5211" y="198.4378" width="6.6146" height="6.6146" />
<rect x="185.2086" y="198.4378" width="6.6146" height="6.6146" />
<rect x="198.4378" y="198.4378" width="6.6146" height="6.6146" />
<rect x="211.6670" y="198.4378" width="6.6146" height="6.6146" />
<rect x="231.5108" y="198.4378" width="6.6146" height="6.6146" />
<rect x="238.1254" y="198.4378" width="6.6146" height="6.6146" />
</g>
<g fill="rgb(0%,0%,0%)">
<rect x="0.0000" y="205.0524" width="6.6146" height="6.6146" />
<rect x="39.6876" y="205.0524" width="6.6146" height="6.6146" />
<rect x="59.5314" y="205.0524" width="6.6146" height="6.6146" />
<rect x="72.7605" y="205.0524" width="6.6146" height="6.6146" />
<rect x="92.6043" y="205.0524" width="6.6146" height="6.6146" />
<rect x="132.2919" y="205.0524" width="6.6146" height="6.6146" />
<rect x="138.9065" y="205.0524" width="6.6146" height="6.6146" />
<rect x="152.1357" y="205.0524" width="6.6146" height="6.6146" />
<rect x="171.9795" y="205.0524" width="6.6146" height="6.6146" />
<rect x="185.2086" y="205.0524" width="6.6146" height="6.6146" />
<rect x="211.6670" y="205.0524" width="6.6146" height="6.6146" />
<rect x="238.1254" y="205.0524" width="6.6146" height="6.6146" />
</g>
<g fill="rgb(0%,0%,0%)">
<rect x="0.0000" y="211.6670" width="6.6146" height="6.6146" />
<rect x="13.2292" y="211.6670" width="6.6146" height="6.6146" />
<rect x="19.8438" y="211.6670" width="6.6146" height="6.6146" />
<rect x="26.4584" y="211.6670" width="6.6146" height="6.6146" />
<rect x="39.6876" y="211.6670" width="6.6146" height="6.6146" />
<rect x="52.9168" y="211.6670" width="6.6146" height="6.6146" />
<rect x="72.7605" y="211.6670" width="6.6146" height="6.6146" />
<rect x="99.2189" y="211.6670" width="6.6146" height="6.6146" />
<rect x="105.8335" y="211.6670" width="6.6146" height="6.6146" />
<rect x="112.4481" y="211.6670" width="6.6146" height="6.6146" />
<rect x="132.2919" y="211.6670" width="6.6146" height="6.6146" />
<rect x="145.5211" y="211.6670" width="6.6146" height="6.6146" />
<rect x="152.1357" y="211.6670" width="6.6146" height="6.6146" />
<rect x="165.3649" y="211.6670" width="6.6146" height="6.6146" />
<rect x="171.9795" y="211.6670" width="6.6146" height="6.6146" />
<rect x="178.5941" y="211.6670" width="6.6146" height="6.6146" />
<rect x="185.2086" y="211.6670" width="6.6146" height="6.6146" />
<rect x="191.8232" y="211.6670" width="6.6146" height="6.6146" />
<rect x="198.4378" y="211.6670" width="6.6146" height="6.6146" />
<rect x="205.0524" y="211.6670" width="6.6146" height="6.6146" />
<rect x="211.6670" y="211.6670" width="6.6146" height="6.6146" />
<rect x="224.8962" y="211.6670" width="6.6146" height="6.6146" />
<rect x="231.5108" y="211.6670" width="6.6146" height="6.6146" />
<rect x="238.1254" y="211.6670" width="6.6146" height="6.6146" />
</g>
<g fill="rgb(0%,0%,0%)">
<rect x="0.0000" y="218.2816" width="6.6146" height="6.6146" />
<rect x="13.2292" y="218.2816" width="6.6146" height="6.6146" />
<rect x="19.8438" y="218.2816" width="6.6146" height="6.6146" />
<rect x="26.4584" y="218.2816" width="6.6146" height="6.6146" />
<rect x="39.6876" y="218.2816" width="6.6146" height="6.6146" />
<rect x="52.9168" y="218.2816" width="6.6146" height="6.6146" />
<rect x="59.5314" y="218.2816" width="6.6146" height="6.6146" />
<rect x="66.1459" y="218.2816" width="6.6146" height="6.6146" />
<rect x="79.3751" y="218.2816" width="6.6146" height="6.6146" />
<rect x="85.9897" y="218.2816" width="6.6146" height="6.6146" />
<rect x="92.6043" y="218.2816" width="6.6146" height="6.6146" />
<rect x="105.8335" y="218.2816" width="6.6146" height="6.6146" />
<rect x="112.4481" y="218.2816" width="6.6146" height="6.6146" />
<rect x="119.0627" y="218.2816" width="6.6146" height="6.6146" />
<rect x="125.6773" y="218.2816" width="6.6146" height="6.6146" />
<rect x="132.2919" y="218.2816" width="6.6146" height="6.6146" />
<rect x="152.1357" y="218.2816" width="6.6146" height="6.6146" />
<rect x="158.7503" y="218.2816" width="6.6146" height="6.6146" />
<rect x="165.3649" y="218.2816" width="6.6146" height="6.6146" />
<rect x="185.2086" y="218.2816" width="6.6146" height="6.6146" />
<rect x="198.4378" y="218.2816" width="6.6146" height="6.6146" />
<rect x="211.6670" y="218.2816" width="6.6146" height="6.6146" />
<rect x="218.2816" y="218.2816" width="6.6146" height="6.6146" />
<rect x="224.8962" y="218.2816" width="6.6146" height="6.6146" />
<rect x="231.5108" y="218.2816" width="6.6146" height="6.6146" />
<rect x="238.1254" y="218.2816" width="6.6146" height="6.6146" />
</g>
<g fill="rgb(0%,0%,0%)">
<rect x="0.0000" y="224.8962" width="6.6146" height="6.6146" />
<rect x="13.2292" y="224.8962" width="6.6146" height="6.6146" />
<rect x="19.8438" y="224.8962" width="6.6146" height="6.6146" />
<rect x="26.4584" y="224.8962" width="6.6146" height="6.6146" />
<rect x="39.6876" y="224.8962" width="6.6146" height="6.6146" />
<rect x="52.9168" y="224.8962" width="6.6146" height="6.6146" />
<rect x="66.1459" y="224.8962" width="6.6146" height="6.6146" />
<rect x="85.9897" y="224.8962" width="6.6146" height="6.6146" />
<rect x="92.6043" y="224.8962" width="6.6146" height="6.6146" />
<rect x="99.2189" y="224.8962" width="6.6146" height="6.6146" />
<rect x="105.8335" y="224.8962" width="6.6146" height="6.6146" />
<rect x="112.4481" y="224.8962" width="6.6146" height="6.6146" />
<rect x="132.2919" y="224.8962" width="6.6146" height="6.6146" />
<rect x="171.9795" y="224.8962" width="6.6146" height="6.6146" />
<rect x="178.5941" y="224.8962" width="6.6146" height="6.6146" />
<rect x="205.0524" y="224.8962" width="6.6146" height="6.6146" />
<rect x="231.5108" y="224.8962" width="6.6146" height="6.6146" />
<rect x="238.1254" y="224.8962" width="6.6146" height="6.6146" />
</g>
<g fill="rgb(0%,0%,0%)">
<rect x="0.0000" y="231.5108" width="6.6146" height="6.6146" />
<rect x="39.6876" y="231.5108" width="6.6146" height="6.6146" />
<rect x="52.9168" y="231.5108" width="6.6146" height="6.6146" />
<rect x="66.1459" y="231.5108" width="6.6146" height="6.6146" />
<rect x="79.3751" y="231.5108" width="6.6146" height="6.6146" />
<rect x="85.9897" y="231.5108" width="6.6146" height="6.6146" />
<rect x="99.2189" y="231.5108" width="6.6146" height="6.6146" />
<rect x="105.8335" y="231.5108" width="6.6146" height="6.6146" />
<rect x="119.0627" y="231.5108" width="6.6146" height="6.6146" />
<rect x="138.9065" y="231.5108" width="6.6146" height="6.6146" />
<rect x="145.5211" y="231.5108" width="6.6146" height="6.6146" />
<rect x="152.1357" y="231.5108" width="6.6146" height="6.6146" />
<rect x="158.7503" y="231.5108" width="6.6146" height="6.6146" />
<rect x="185.2086" y="231.5108" width="6.6146" height="6.6146" />
<rect x="191.8232" y="231.5108" width="6.6146" height="6.6146" />
<rect x="211.6670" y="231.5108" width="6.6146" height="6.6146" />
<rect x="218.2816" y="231.5108" width="6.6146" height="6.6146" />
<rect x="238.1254" y="231.5108" width="6.6146" height="6.6146" />
</g>
<g fill="rgb(0%,0%,0%)">
<rect x="0.0000" y="238.1254" width="6.6146" height="6.6146" />
<rect x="6.6146" y="238.1254" width="6.6146" height="6.6146" />
<rect x="13.2292" y="238.1254" width="6.6146" height="6.6146" />
<rect x="19.8438" y="238.1254" width="6.6146" height="6.6146" />
<rect x="26.4584" y="238.1254" width="6.6146" height="6.6146" />
<rect x="33.0730" y="238.1254" width="6.6146" height="6.6146" />
<rect x="39.6876" y="238.1254" width="6.6146" height="6.6146" />
<rect x="52.9168" y="238.1254" width="6.6146" height="6.6146" />
<rect x="59.5314" y="238.1254" width="6.6146" height="6.6146" />
<rect x="66.1459" y="238.1254" width="6.6146" height="6.6146" />
<rect x="79.3751" y="238.1254" width="6.6146" height="6.6146" />
<rect x="92.6043" y="238.1254" width="6.6146" height="6.6146" />
<rect x="99.2189" y="238.1254" width="6.6146" height="6.6146" />
<rect x="112.4481" y="238.1254" width="6.6146" height="6.6146" />
<rect x="145.5211" y="238.1254" width="6.6146" height="6.6146" />
<rect x="165.3649" y="238.1254" width="6.6146" height="6.6146" />
<rect x="171.9795" y="238.1254" width="6.6146" height="6.6146" />
<rect x="191.8232" y="238.1254" width="6.6146" height="6.6146" />
<rect x="205.0524" y="238.1254" width="6.6146" height="6.6146" />
<rect x="211.6670" y="238.1254" width="6.6146" height="6.6146" />
<rect x="218.2816" y="238.1254" width="6.6146" height="6.6146" />
<rect x="224.8962" y="238.1254" width="6.6146" height="6.6146" />
<rect x="231.5108" y="238.1254" width="6.6146" height="6.6146" />
<rect x="238.1254" y="238.1254" width="6.6146" height="6.6146" />
</g>
</svg>
