<?xml version="1.0" standalone="no"?><!DOCTYPE svg PUBLIC "-//W3C//DTD SVG 1.1//EN" "http://www.w3.org/Graphics/SVG/1.1/DTD/svg11.dtd">
<svg x="0.0000mm" y="0.0000mm" width="165.3650mm" height="165.3650mm" viewBox="0.0000 0.0000 165.3650 165.3650" version="1.1" xmlns="http://www.w3.org/2000/svg" shape-rendering="crispEdges">
<title>TBarCode - 11.17.1.16949</title>
<desc>BarCode licensed to MEM:TEC-IT Datenverarbeitung GmbH Internal License</desc>
<g fill="rgb(0%,0%,0%)">
</g>
<g fill="rgb(100%,100%,100%)">
<rect x="0.0000" y="0.0000" width="165.3650" height="165.3650" />
</g>
<g fill="rgb(0%,0%,0%)">
</g>
<g fill="rgb(0%,0%,0%)">
<rect x="0.0000" y="0.0000" width="6.6146" height="6.6146" />
<rect x="6.6146" y="0.0000" width="6.6146" height="6.6146" />
<rect x="13.2292" y="0.0000" width="6.6146" height="6.6146" />
<rect x="19.8438" y="0.0000" width="6.6146" height="6.6146" />
<rect x="26.4584" y="0.0000" width="6.6146" height="6.6146" />
<rect x="33.0730" y="0.0000" width="6.6146" height="6.6146" />
<rect x="39.6876" y="0.0000" width="6.6146" height="6.6146" />
<rect x="52.9168" y="0.0000" width="6.6146" height="6.6146" />
<rect x="59.5314" y="0.0000" width="6.6146" height="6.6146" />
<rect x="85.9898" y="0.0000" width="6.6146" height="6.6146" />
<rect x="119.0628" y="0.0000" width="6.6146" height="6.6146" />
<rect x="125.6774" y="0.0000" width="6.6146" height="6.6146" />
<rect x="132.2920" y="0.0000" width="6.6146" height="6.6146" />
<rect x="138.9066" y="0.0000" width="6.6146" height="6.6146" />
<rect x="145.5212" y="0.0000" width="6.6146" height="6.6146" />
<rect x="152.1358" y="0.0000" width="6.6146" height="6.6146" />
<rect x="158.7504" y="0.0000" width="6.6146" height="6.6146" />
</g>
<g fill="rgb(0%,0%,0%)">
<rect x="0.0000" y="6.6146" width="6.6146" height="6.6146" />
<rect x="39.6876" y="6.6146" width="6.6146" height="6.6146" />
<rect x="85.9898" y="6.6146" width="6.6146" height="6.6146" />
<rect x="119.0628" y="6.6146" width="6.6146" height="6.6146" />
<rect x="158.7504" y="6.6146" width="6.6146" height="6.6146" />
</g>
<g fill="rgb(0%,0%,0%)">
<rect x="0.0000" y="13.2292" width="6.6146" height="6.6146" />
<rect x="13.2292" y="13.2292" width="6.6146" height="6.6146" />
<rect x="19.8438" y="13.2292" width="6.6146" height="6.6146" />
<rect x="26.4584" y="13.2292" width="6.6146" height="6.6146" />
<rect x="39.6876" y="13.2292" width="6.6146" height="6.6146" />
<rect x="52.9168" y="13.2292" width="6.6146" height="6.6146" />
<rect x="72.7606" y="13.2292" width="6.6146" height="6.6146" />
<rect x="79.3752" y="13.2292" width="6.6146" height="6.6146" />
<rect x="85.9898" y="13.2292" width="6.6146" height="6.6146" />
<rect x="92.6044" y="13.2292" width="6.6146" height="6.6146" />
<rect x="119.0628" y="13.2292" width="6.6146" height="6.6146" />
<rect x="132.2920" y="13.2292" width="6.6146" height="6.6146" />
<rect x="138.9066" y="13.2292" width="6.6146" height="6.6146" />
<rect x="145.5212" y="13.2292" width="6.6146" height="6.6146" />
<rect x="158.7504" y="13.2292" width="6.6146" height="6.6146" />
</g>
<g fill="rgb(0%,0%,0%)">
<rect x="0.0000" y="19.8438" width="6.6146" height="6.6146" />
<rect x="13.2292" y="19.8438" width="6.6146" height="6.6146" />
<rect x="19.8438" y="19.8438" width="6.6146" height="6.6146" />
<rect x="26.4584" y="19.8438" width="6.6146" height="6.6146" />
<rect x="39.6876" y="19.8438" width="6.6146" height="6.6146" />
<rect x="52.9168" y="19.8438" width="6.6146" height="6.6146" />
<rect x="59.5314" y="19.8438" width="6.6146" height="6.6146" />
<rect x="72.7606" y="19.8438" width="6.6146" height="6.6146" />
<rect x="99.2190" y="19.8438" width="6.6146" height="6.6146" />
<rect x="105.8336" y="19.8438" width="6.6146" height="6.6146" />
<rect x="119.0628" y="19.8438" width="6.6146" height="6.6146" />
<rect x="132.2920" y="19.8438" width="6.6146" height="6.6146" />
<rect x="138.9066" y="19.8438" width="6.6146" height="6.6146" />
<rect x="145.5212" y="19.8438" width="6.6146" height="6.6146" />
<rect x="158.7504" y="19.8438" width="6.6146" height="6.6146" />
</g>
<g fill="rgb(0%,0%,0%)">
<rect x="0.0000" y="26.4584" width="6.6146" height="6.6146" />
<rect x="13.2292" y="26.4584" width="6.6146" height="6.6146" />
<rect x="19.8438" y="26.4584" width="6.6146" height="6.6146" />
<rect x="26.4584" y="26.4584" width="6.6146" height="6.6146" />
<rect x="39.6876" y="26.4584" width="6.6146" height="6.6146" />
<rect x="52.9168" y="26.4584" width="6.6146" height="6.6146" />
<rect x="59.5314" y="26.4584" width="6.6146" height="6.6146" />
<rect x="66.1460" y="26.4584" width="6.6146" height="6.6146" />
<rect x="72.7606" y="26.4584" width="6.6146" height="6.6146" />
<rect x="85.9898" y="26.4584" width="6.6146" height="6.6146" />
<rect x="92.6044" y="26.4584" width="6.6146" height="6.6146" />
<rect x="99.2190" y="26.4584" width="6.6146" height="6.6146" />
<rect x="105.8336" y="26.4584" width="6.6146" height="6.6146" />
<rect x="119.0628" y="26.4584" width="6.6146" height="6.6146" />
<rect x="132.2920" y="26.4584" width="6.6146" height="6.6146" />
<rect x="138.9066" y="26.4584" width="6.6146" height="6.6146" />
<rect x="145.5212" y="26.4584" width="6.6146" height="6.6146" />
<rect x="158.7504" y="26.4584" width="6.6146" height="6.6146" />
</g>
<g fill="rgb(0%,0%,0%)">
<rect x="0.0000" y="33.0730" width="6.6146" height="6.6146" />
<rect x="39.6876" y="33.0730" width="6.6146" height="6.6146" />
<rect x="59.5314" y="33.0730" width="6.6146" height="6.6146" />
<rect x="79.3752" y="33.0730" width="6.6146" height="6.6146" />
<rect x="92.6044" y="33.0730" width="6.6146" height="6.6146" />
<rect x="119.0628" y="33.0730" width="6.6146" height="6.6146" />
<rect x="158.7504" y="33.0730" width="6.6146" height="6.6146" />
</g>
<g fill="rgb(0%,0%,0%)">
<rect x="0.0000" y="39.6876" width="6.6146" height="6.6146" />
<rect x="6.6146" y="39.6876" width="6.6146" height="6.6146" />
<rect x="13.2292" y="39.6876" width="6.6146" height="6.6146" />
<rect x="19.8438" y="39.6876" width="6.6146" height="6.6146" />
<rect x="26.4584" y="39.6876" width="6.6146" height="6.6146" />
<rect x="33.0730" y="39.6876" width="6.6146" height="6.6146" />
<rect x="39.6876" y="39.6876" width="6.6146" height="6.6146" />
<rect x="52.9168" y="39.6876" width="6.6146" height="6.6146" />
<rect x="66.1460" y="39.6876" width="6.6146" height="6.6146" />
<rect x="79.3752" y="39.6876" width="6.6146" height="6.6146" />
<rect x="92.6044" y="39.6876" width="6.6146" height="6.6146" />
<rect x="105.8336" y="39.6876" width="6.6146" height="6.6146" />
<rect x="119.0628" y="39.6876" width="6.6146" height="6.6146" />
<rect x="125.6774" y="39.6876" width="6.6146" height="6.6146" />
<rect x="132.2920" y="39.6876" width="6.6146" height="6.6146" />
<rect x="138.9066" y="39.6876" width="6.6146" height="6.6146" />
<rect x="145.5212" y="39.6876" width="6.6146" height="6.6146" />
<rect x="152.1358" y="39.6876" width="6.6146" height="6.6146" />
<rect x="158.7504" y="39.6876" width="6.6146" height="6.6146" />
</g>
<g fill="rgb(0%,0%,0%)">
<rect x="59.5314" y="46.3022" width="6.6146" height="6.6146" />
<rect x="72.7606" y="46.3022" width="6.6146" height="6.6146" />
<rect x="85.9898" y="46.3022" width="6.6146" height="6.6146" />
<rect x="92.6044" y="46.3022" width="6.6146" height="6.6146" />
<rect x="105.8336" y="46.3022" width="6.6146" height="6.6146" />
</g>
<g fill="rgb(0%,0%,0%)">
<rect x="0.0000" y="52.9168" width="6.6146" height="6.6146" />
<rect x="6.6146" y="52.9168" width="6.6146" height="6.6146" />
<rect x="13.2292" y="52.9168" width="6.6146" height="6.6146" />
<rect x="19.8438" y="52.9168" width="6.6146" height="6.6146" />
<rect x="39.6876" y="52.9168" width="6.6146" height="6.6146" />
<rect x="52.9168" y="52.9168" width="6.6146" height="6.6146" />
<rect x="85.9898" y="52.9168" width="6.6146" height="6.6146" />
<rect x="92.6044" y="52.9168" width="6.6146" height="6.6146" />
<rect x="105.8336" y="52.9168" width="6.6146" height="6.6146" />
<rect x="112.4482" y="52.9168" width="6.6146" height="6.6146" />
<rect x="132.2920" y="52.9168" width="6.6146" height="6.6146" />
<rect x="138.9066" y="52.9168" width="6.6146" height="6.6146" />
<rect x="145.5212" y="52.9168" width="6.6146" height="6.6146" />
<rect x="158.7504" y="52.9168" width="6.6146" height="6.6146" />
</g>
<g fill="rgb(0%,0%,0%)">
<rect x="19.8438" y="59.5314" width="6.6146" height="6.6146" />
<rect x="26.4584" y="59.5314" width="6.6146" height="6.6146" />
<rect x="52.9168" y="59.5314" width="6.6146" height="6.6146" />
<rect x="59.5314" y="59.5314" width="6.6146" height="6.6146" />
<rect x="105.8336" y="59.5314" width="6.6146" height="6.6146" />
<rect x="112.4482" y="59.5314" width="6.6146" height="6.6146" />
<rect x="125.6774" y="59.5314" width="6.6146" height="6.6146" />
<rect x="152.1358" y="59.5314" width="6.6146" height="6.6146" />
</g>
<g fill="rgb(0%,0%,0%)">
<rect x="6.6146" y="66.1460" width="6.6146" height="6.6146" />
<rect x="39.6876" y="66.1460" width="6.6146" height="6.6146" />
<rect x="46.3022" y="66.1460" width="6.6146" height="6.6146" />
<rect x="52.9168" y="66.1460" width="6.6146" height="6.6146" />
<rect x="92.6044" y="66.1460" width="6.6146" height="6.6146" />
<rect x="112.4482" y="66.1460" width="6.6146" height="6.6146" />
<rect x="125.6774" y="66.1460" width="6.6146" height="6.6146" />
<rect x="132.2920" y="66.1460" width="6.6146" height="6.6146" />
</g>
<g fill="rgb(0%,0%,0%)">
<rect x="0.0000" y="72.7606" width="6.6146" height="6.6146" />
<rect x="6.6146" y="72.7606" width="6.6146" height="6.6146" />
<rect x="13.2292" y="72.7606" width="6.6146" height="6.6146" />
<rect x="19.8438" y="72.7606" width="6.6146" height="6.6146" />
<rect x="26.4584" y="72.7606" width="6.6146" height="6.6146" />
<rect x="72.7606" y="72.7606" width="6.6146" height="6.6146" />
<rect x="79.3752" y="72.7606" width="6.6146" height="6.6146" />
<rect x="85.9898" y="72.7606" width="6.6146" height="6.6146" />
<rect x="92.6044" y="72.7606" width="6.6146" height="6.6146" />
<rect x="99.2190" y="72.7606" width="6.6146" height="6.6146" />
<rect x="119.0628" y="72.7606" width="6.6146" height="6.6146" />
<rect x="125.6774" y="72.7606" width="6.6146" height="6.6146" />
<rect x="138.9066" y="72.7606" width="6.6146" height="6.6146" />
<rect x="145.5212" y="72.7606" width="6.6146" height="6.6146" />
</g>
<g fill="rgb(0%,0%,0%)">
<rect x="6.6146" y="79.3752" width="6.6146" height="6.6146" />
<rect x="19.8438" y="79.3752" width="6.6146" height="6.6146" />
<rect x="26.4584" y="79.3752" width="6.6146" height="6.6146" />
<rect x="33.0730" y="79.3752" width="6.6146" height="6.6146" />
<rect x="39.6876" y="79.3752" width="6.6146" height="6.6146" />
<rect x="59.5314" y="79.3752" width="6.6146" height="6.6146" />
<rect x="72.7606" y="79.3752" width="6.6146" height="6.6146" />
<rect x="112.4482" y="79.3752" width="6.6146" height="6.6146" />
<rect x="119.0628" y="79.3752" width="6.6146" height="6.6146" />
<rect x="125.6774" y="79.3752" width="6.6146" height="6.6146" />
<rect x="132.2920" y="79.3752" width="6.6146" height="6.6146" />
<rect x="145.5212" y="79.3752" width="6.6146" height="6.6146" />
<rect x="152.1358" y="79.3752" width="6.6146" height="6.6146" />
<rect x="158.7504" y="79.3752" width="6.6146" height="6.6146" />
</g>
<g fill="rgb(0%,0%,0%)">
<rect x="6.6146" y="85.9898" width="6.6146" height="6.6146" />
<rect x="19.8438" y="85.9898" width="6.6146" height="6.6146" />
<rect x="46.3022" y="85.9898" width="6.6146" height="6.6146" />
<rect x="59.5314" y="85.9898" width="6.6146" height="6.6146" />
<rect x="66.1460" y="85.9898" width="6.6146" height="6.6146" />
<rect x="72.7606" y="85.9898" width="6.6146" height="6.6146" />
<rect x="85.9898" y="85.9898" width="6.6146" height="6.6146" />
<rect x="99.2190" y="85.9898" width="6.6146" height="6.6146" />
<rect x="105.8336" y="85.9898" width="6.6146" height="6.6146" />
<rect x="112.4482" y="85.9898" width="6.6146" height="6.6146" />
<rect x="119.0628" y="85.9898" width="6.6146" height="6.6146" />
<rect x="125.6774" y="85.9898" width="6.6146" height="6.6146" />
<rect x="132.2920" y="85.9898" width="6.6146" height="6.6146" />
<rect x="158.7504" y="85.9898" width="6.6146" height="6.6146" />
</g>
<g fill="rgb(0%,0%,0%)">
<rect x="6.6146" y="92.6044" width="6.6146" height="6.6146" />
<rect x="19.8438" y="92.6044" width="6.6146" height="6.6146" />
<rect x="33.0730" y="92.6044" width="6.6146" height="6.6146" />
<rect x="39.6876" y="92.6044" width="6.6146" height="6.6146" />
<rect x="46.3022" y="92.6044" width="6.6146" height="6.6146" />
<rect x="79.3752" y="92.6044" width="6.6146" height="6.6146" />
<rect x="92.6044" y="92.6044" width="6.6146" height="6.6146" />
<rect x="105.8336" y="92.6044" width="6.6146" height="6.6146" />
<rect x="132.2920" y="92.6044" width="6.6146" height="6.6146" />
<rect x="145.5212" y="92.6044" width="6.6146" height="6.6146" />
<rect x="152.1358" y="92.6044" width="6.6146" height="6.6146" />
</g>
<g fill="rgb(0%,0%,0%)">
<rect x="0.0000" y="99.2190" width="6.6146" height="6.6146" />
<rect x="13.2292" y="99.2190" width="6.6146" height="6.6146" />
<rect x="26.4584" y="99.2190" width="6.6146" height="6.6146" />
<rect x="33.0730" y="99.2190" width="6.6146" height="6.6146" />
<rect x="52.9168" y="99.2190" width="6.6146" height="6.6146" />
<rect x="59.5314" y="99.2190" width="6.6146" height="6.6146" />
<rect x="66.1460" y="99.2190" width="6.6146" height="6.6146" />
<rect x="79.3752" y="99.2190" width="6.6146" height="6.6146" />
<rect x="85.9898" y="99.2190" width="6.6146" height="6.6146" />
<rect x="105.8336" y="99.2190" width="6.6146" height="6.6146" />
<rect x="125.6774" y="99.2190" width="6.6146" height="6.6146" />
<rect x="132.2920" y="99.2190" width="6.6146" height="6.6146" />
<rect x="158.7504" y="99.2190" width="6.6146" height="6.6146" />
</g>
<g fill="rgb(0%,0%,0%)">
<rect x="19.8438" y="105.8336" width="6.6146" height="6.6146" />
<rect x="39.6876" y="105.8336" width="6.6146" height="6.6146" />
<rect x="46.3022" y="105.8336" width="6.6146" height="6.6146" />
<rect x="59.5314" y="105.8336" width="6.6146" height="6.6146" />
<rect x="72.7606" y="105.8336" width="6.6146" height="6.6146" />
<rect x="99.2190" y="105.8336" width="6.6146" height="6.6146" />
<rect x="105.8336" y="105.8336" width="6.6146" height="6.6146" />
<rect x="112.4482" y="105.8336" width="6.6146" height="6.6146" />
<rect x="119.0628" y="105.8336" width="6.6146" height="6.6146" />
<rect x="125.6774" y="105.8336" width="6.6146" height="6.6146" />
<rect x="132.2920" y="105.8336" width="6.6146" height="6.6146" />
<rect x="138.9066" y="105.8336" width="6.6146" height="6.6146" />
<rect x="145.5212" y="105.8336" width="6.6146" height="6.6146" />
<rect x="152.1358" y="105.8336" width="6.6146" height="6.6146" />
<rect x="158.7504" y="105.8336" width="6.6146" height="6.6146" />
</g>
<g fill="rgb(0%,0%,0%)">
<rect x="52.9168" y="112.4482" width="6.6146" height="6.6146" />
<rect x="59.5314" y="112.4482" width="6.6146" height="6.6146" />
<rect x="66.1460" y="112.4482" width="6.6146" height="6.6146" />
<rect x="79.3752" y="112.4482" width="6.6146" height="6.6146" />
<rect x="85.9898" y="112.4482" width="6.6146" height="6.6146" />
<rect x="105.8336" y="112.4482" width="6.6146" height="6.6146" />
<rect x="132.2920" y="112.4482" width="6.6146" height="6.6146" />
<rect x="145.5212" y="112.4482" width="6.6146" height="6.6146" />
<rect x="158.7504" y="112.4482" width="6.6146" height="6.6146" />
</g>
<g fill="rgb(0%,0%,0%)">
<rect x="0.0000" y="119.0628" width="6.6146" height="6.6146" />
<rect x="6.6146" y="119.0628" width="6.6146" height="6.6146" />
<rect x="13.2292" y="119.0628" width="6.6146" height="6.6146" />
<rect x="19.8438" y="119.0628" width="6.6146" height="6.6146" />
<rect x="26.4584" y="119.0628" width="6.6146" height="6.6146" />
<rect x="33.0730" y="119.0628" width="6.6146" height="6.6146" />
<rect x="39.6876" y="119.0628" width="6.6146" height="6.6146" />
<rect x="72.7606" y="119.0628" width="6.6146" height="6.6146" />
<rect x="79.3752" y="119.0628" width="6.6146" height="6.6146" />
<rect x="105.8336" y="119.0628" width="6.6146" height="6.6146" />
<rect x="119.0628" y="119.0628" width="6.6146" height="6.6146" />
<rect x="132.2920" y="119.0628" width="6.6146" height="6.6146" />
<rect x="145.5212" y="119.0628" width="6.6146" height="6.6146" />
<rect x="152.1358" y="119.0628" width="6.6146" height="6.6146" />
<rect x="158.7504" y="119.0628" width="6.6146" height="6.6146" />
</g>
<g fill="rgb(0%,0%,0%)">
<rect x="0.0000" y="125.6774" width="6.6146" height="6.6146" />
<rect x="39.6876" y="125.6774" width="6.6146" height="6.6146" />
<rect x="66.1460" y="125.6774" width="6.6146" height="6.6146" />
<rect x="79.3752" y="125.6774" width="6.6146" height="6.6146" />
<rect x="105.8336" y="125.6774" width="6.6146" height="6.6146" />
<rect x="132.2920" y="125.6774" width="6.6146" height="6.6146" />
<rect x="152.1358" y="125.6774" width="6.6146" height="6.6146" />
<rect x="158.7504" y="125.6774" width="6.6146" height="6.6146" />
</g>
<g fill="rgb(0%,0%,0%)">
<rect x="0.0000" y="132.2920" width="6.6146" height="6.6146" />
<rect x="13.2292" y="132.2920" width="6.6146" height="6.6146" />
<rect x="19.8438" y="132.2920" width="6.6146" height="6.6146" />
<rect x="26.4584" y="132.2920" width="6.6146" height="6.6146" />
<rect x="39.6876" y="132.2920" width="6.6146" height="6.6146" />
<rect x="66.1460" y="132.2920" width="6.6146" height="6.6146" />
<rect x="72.7606" y="132.2920" width="6.6146" height="6.6146" />
<rect x="79.3752" y="132.2920" width="6.6146" height="6.6146" />
<rect x="85.9898" y="132.2920" width="6.6146" height="6.6146" />
<rect x="105.8336" y="132.2920" width="6.6146" height="6.6146" />
<rect x="112.4482" y="132.2920" width="6.6146" height="6.6146" />
<rect x="119.0628" y="132.2920" width="6.6146" height="6.6146" />
<rect x="125.6774" y="132.2920" width="6.6146" height="6.6146" />
<rect x="132.2920" y="132.2920" width="6.6146" height="6.6146" />
<rect x="138.9066" y="132.2920" width="6.6146" height="6.6146" />
</g>
<g fill="rgb(0%,0%,0%)">
<rect x="0.0000" y="138.9066" width="6.6146" height="6.6146" />
<rect x="13.2292" y="138.9066" width="6.6146" height="6.6146" />
<rect x="19.8438" y="138.9066" width="6.6146" height="6.6146" />
<rect x="26.4584" y="138.9066" width="6.6146" height="6.6146" />
<rect x="39.6876" y="138.9066" width="6.6146" height="6.6146" />
<rect x="52.9168" y="138.9066" width="6.6146" height="6.6146" />
<rect x="66.1460" y="138.9066" width="6.6146" height="6.6146" />
<rect x="79.3752" y="138.9066" width="6.6146" height="6.6146" />
<rect x="85.9898" y="138.9066" width="6.6146" height="6.6146" />
<rect x="92.6044" y="138.9066" width="6.6146" height="6.6146" />
<rect x="99.2190" y="138.9066" width="6.6146" height="6.6146" />
<rect x="112.4482" y="138.9066" width="6.6146" height="6.6146" />
<rect x="119.0628" y="138.9066" width="6.6146" height="6.6146" />
<rect x="132.2920" y="138.9066" width="6.6146" height="6.6146" />
<rect x="138.9066" y="138.9066" width="6.6146" height="6.6146" />
<rect x="145.5212" y="138.9066" width="6.6146" height="6.6146" />
<rect x="152.1358" y="138.9066" width="6.6146" height="6.6146" />
<rect x="158.7504" y="138.9066" width="6.6146" height="6.6146" />
</g>
<g fill="rgb(0%,0%,0%)">
<rect x="0.0000" y="145.5212" width="6.6146" height="6.6146" />
<rect x="13.2292" y="145.5212" width="6.6146" height="6.6146" />
<rect x="19.8438" y="145.5212" width="6.6146" height="6.6146" />
<rect x="26.4584" y="145.5212" width="6.6146" height="6.6146" />
<rect x="39.6876" y="145.5212" width="6.6146" height="6.6146" />
<rect x="52.9168" y="145.5212" width="6.6146" height="6.6146" />
<rect x="59.5314" y="145.5212" width="6.6146" height="6.6146" />
<rect x="72.7606" y="145.5212" width="6.6146" height="6.6146" />
<rect x="79.3752" y="145.5212" width="6.6146" height="6.6146" />
<rect x="85.9898" y="145.5212" width="6.6146" height="6.6146" />
<rect x="99.2190" y="145.5212" width="6.6146" height="6.6146" />
<rect x="112.4482" y="145.5212" width="6.6146" height="6.6146" />
<rect x="119.0628" y="145.5212" width="6.6146" height="6.6146" />
<rect x="132.2920" y="145.5212" width="6.6146" height="6.6146" />
<rect x="145.5212" y="145.5212" width="6.6146" height="6.6146" />
<rect x="152.1358" y="145.5212" width="6.6146" height="6.6146" />
</g>
<g fill="rgb(0%,0%,0%)">
<rect x="0.0000" y="152.1358" width="6.6146" height="6.6146" />
<rect x="39.6876" y="152.1358" width="6.6146" height="6.6146" />
<rect x="52.9168" y="152.1358" width="6.6146" height="6.6146" />
<rect x="59.5314" y="152.1358" width="6.6146" height="6.6146" />
<rect x="66.1460" y="152.1358" width="6.6146" height="6.6146" />
<rect x="99.2190" y="152.1358" width="6.6146" height="6.6146" />
<rect x="112.4482" y="152.1358" width="6.6146" height="6.6146" />
<rect x="119.0628" y="152.1358" width="6.6146" height="6.6146" />
<rect x="132.2920" y="152.1358" width="6.6146" height="6.6146" />
<rect x="145.5212" y="152.1358" width="6.6146" height="6.6146" />
</g>
<g fill="rgb(0%,0%,0%)">
<rect x="0.0000" y="158.7504" width="6.6146" height="6.6146" />
<rect x="6.6146" y="158.7504" width="6.6146" height="6.6146" />
<rect x="13.2292" y="158.7504" width="6.6146" height="6.6146" />
<rect x="19.8438" y="158.7504" width="6.6146" height="6.6146" />
<rect x="26.4584" y="158.7504" width="6.6146" height="6.6146" />
<rect x="33.0730" y="158.7504" width="6.6146" height="6.6146" />
<rect x="39.6876" y="158.7504" width="6.6146" height="6.6146" />
<rect x="52.9168" y="158.7504" width="6.6146" height="6.6146" />
<rect x="79.3752" y="158.7504" width="6.6146" height="6.6146" />
<rect x="92.6044" y="158.7504" width="6.6146" height="6.6146" />
<rect x="112.4482" y="158.7504" width="6.6146" height="6.6146" />
<rect x="125.6774" y="158.7504" width="6.6146" height="6.6146" />
<rect x="132.2920" y="158.7504" width="6.6146" height="6.6146" />
<rect x="138.9066" y="158.7504" width="6.6146" height="6.6146" />
<rect x="145.5212" y="158.7504" width="6.6146" height="6.6146" />
<rect x="152.1358" y="158.7504" width="6.6146" height="6.6146" />
<rect x="158.7504" y="158.7504" width="6.6146" height="6.6146" />
</g>
</svg>
